<svg width="135" height="40" viewBox="0 0 135 40" fill="none" xmlns="http://www.w3.org/2000/svg">
<g id="AQUA-TEX_Beskidy">
<path id="Vector" d="M18.5703 24.8096L18.3383 24.1277L18.1641 23.6315H6.58631L5.57056 27.073H2.32082L8.15322 9.80387H12.3317L15.8427 20.2211H12.912L10.2424 11.168L7.2247 21.3993H17.4097L17.0325 20.2211L13.1151 8.62572H7.36972L0.753906 28.2511H6.38307L7.39882 24.8096H13.1151L14.1307 28.2511H19.7311L18.5703 24.8096ZM8.73351 20.2211L10.2424 15.1054L11.7512 20.2211H8.73351ZM14.9432 27.073L14.2758 24.8096H17.4097L18.1641 27.073H14.9432V27.073ZM36.7061 23.8796L36.677 23.8175C37.6346 22.1743 38.1569 20.1901 38.1569 18.1129C38.1569 15.2915 37.2283 12.7493 35.5162 10.889C33.8043 9.02878 31.4249 7.97461 28.8134 7.97461C26.2309 7.97461 23.8515 9.02878 22.1395 10.889C20.4273 12.7493 19.4988 15.2915 19.4988 18.1129C19.4988 20.9342 20.4273 23.5075 22.1395 25.3678C23.8515 27.228 26.2309 28.2511 28.8134 28.2511C30.5544 28.2511 32.1793 27.817 33.5721 26.9489L34.2976 27.7551L35.2261 28.7471L38.273 25.5227L36.7061 23.8796V23.8796ZM28.8134 27.073C24.0546 27.073 20.6015 23.2905 20.6015 18.1129C20.6015 12.9352 24.0546 9.15276 28.8134 9.15276C33.6012 9.15276 37.0543 12.9352 37.0543 18.1129C37.0543 19.8801 36.6479 21.5233 35.8645 22.9495L33.5142 20.4382C33.7752 19.6941 33.9203 18.919 33.9203 18.1129C33.9203 15.2295 32.1793 12.3152 28.8134 12.3152C25.4765 12.3152 23.7354 15.2295 23.7354 18.1129C23.7354 20.9962 25.4765 23.9106 28.8134 23.9106C29.4228 23.9106 29.974 23.8175 30.4963 23.6315L32.7598 26.0809C31.599 26.732 30.2641 27.073 28.8134 27.073V27.073ZM36.7061 25.5227L35.2552 27.073L35.1101 26.9179L33.7173 25.4298L31.6281 23.1665L30.7286 22.2053C30.3803 22.4224 30.003 22.5774 29.5968 22.6704C29.4807 22.6704 29.3938 22.7015 29.2777 22.7015C29.2195 22.7015 29.1906 22.7325 29.1616 22.7325C29.1035 22.7325 29.0745 22.7325 29.0164 22.7325C28.9875 22.7325 28.9294 22.7325 28.8713 22.7325H28.8134C26.0858 22.7325 24.8381 20.3452 24.8381 18.1129C24.8381 15.8806 26.0858 13.5243 28.8134 13.5243C31.5699 13.5243 32.8177 15.8806 32.8177 18.1129C32.8177 18.5779 32.7598 19.043 32.6435 19.508V19.477C32.5275 19.9111 32.3824 20.3141 32.1793 20.6862L32.9339 21.4922L33.0499 21.6163L35.2261 23.9726L36.0095 24.7786L36.7061 25.5227V25.5227ZM50.431 8.43966V19.8491C50.431 21.8643 49.6186 22.8564 47.9936 22.8564C46.3398 22.8564 45.5562 21.8953 45.5562 19.8491V8.43966H44.4536V19.8491C44.4536 22.5464 45.7014 24.0346 47.9936 24.0346C50.2279 24.0346 51.5337 22.5154 51.5337 19.8491V9.6178H54.6386V20.2831C54.6386 24.8096 52.3462 27.197 47.9936 27.197C43.6411 27.197 41.3197 24.8096 41.3197 20.2831V8.43966H40.2171V20.2831C40.2171 25.5227 42.9737 28.4062 47.9936 28.4062C52.9846 28.4062 55.7413 25.5227 55.7413 20.2831V8.43966H50.431V8.43966Z" fill="#176ED3"/>
<path id="Vector_2" d="M82.6758 7.6971V13.524H87.2549V28.7521H88.5037V12.2625H83.9246V8.95857H96.5913V12.2625H92.0121V28.7521H93.2612V13.524H97.84V7.6971H82.6758V7.6971ZM105.512 20.8827H111.875V15.2961H105.512V13.524H112.767V7.6971H99.4755V16.5575H110.626V19.6212H99.4755V28.692H113.004V22.8951H105.512V20.8827V20.8827ZM104.263 15.2961H100.724V8.95857H111.518V12.2625H104.263V15.2961V15.2961ZM111.756 27.4306H100.724V20.8827H104.263V24.1566H111.756V27.4306ZM132.242 25.5382L131.113 23.7662L127.604 18.2396L134.235 7.66699H127.574L124.214 12.9232L120.884 7.66699H114.194L120.854 18.2396L114.194 28.692H121.003L124.214 23.616L125.493 25.6284L127.425 28.692H128.912L128.109 27.4306L127.039 25.6885L126.89 25.4482L124.957 22.4145L124.214 21.2432L122.341 18.2396L121.598 17.0682L116.483 8.92858H120.2L123.471 14.0947L124.214 15.2661L126.117 18.2396L126.861 19.411L131.142 26.1691L131.945 27.4306L132.778 28.692H134.264L132.242 25.5382V25.5382ZM123.471 22.4145L120.319 27.4306H116.483L121.598 19.411L123.471 22.4145V22.4145ZM126.861 17.0682L124.957 14.0947L128.258 8.92858H131.975L126.861 17.0682V17.0682Z" fill="black" fill-opacity="0.72"/>
<g id="Group 120">
<path id="Vector_3" fill-rule="evenodd" clip-rule="evenodd" d="M68.4405 10.2291L69.6363 12.1963C66.7678 17.0986 66.4467 19.2131 66.4467 19.9108C66.4467 21.7671 67.043 23.4758 68.1262 24.7225C68.5733 25.2369 69.0816 25.6493 69.6389 25.9598C70.4029 26.3844 71.2604 26.6127 72.1839 26.6318C72.2262 26.6329 72.2678 26.6352 72.31 26.6352C73.96 26.6352 75.4066 25.9737 76.4937 24.7225C77.5771 23.4758 78.1734 21.7671 78.1734 19.9108C78.1734 19.1831 77.8238 16.909 74.5854 11.5245C73.8062 10.2288 73.0279 9.03375 72.3768 8.06935C72.1283 7.66913 69.3854 3.22208 69.1238 2.81681L68.631 2.05347C69.3474 1.01452 69.8224 0.374023 69.8224 0.374023C69.8224 0.374023 80.1702 15.0191 80.1702 19.9108C80.1702 24.8029 76.8884 28.7686 72.31 28.7686C71.3576 28.7686 70.4613 28.5964 69.6389 28.2804C68.6807 27.912 67.8227 27.3485 67.0938 26.6318C65.441 25.0073 64.4497 22.5993 64.4497 19.9108C64.4497 17.4398 66.4555 13.5118 68.4405 10.2291V10.2291Z" fill="#176ED3"/>
<path id="Vector_4" fill-rule="evenodd" clip-rule="evenodd" d="M68.3348 10.0558L68.335 10.056C68.3707 10.1123 68.4066 10.169 68.4425 10.2259C68.4418 10.227 68.4411 10.2282 68.4405 10.2293L69.6362 12.1966C69.637 12.1949 69.6381 12.1934 69.6388 12.1917L68.4425 10.2259L69.6388 12.1917C69.6827 12.2664 69.7257 12.3404 69.7683 12.4139C72.52 17.1625 72.8311 19.2248 72.8311 19.9111C72.8311 21.7673 72.2346 23.4761 71.1512 24.7227C70.9838 24.9157 70.8074 25.0944 70.6231 25.2585C71.1138 25.4505 71.6428 25.554 72.2035 25.5654L73.0812 25.5837C74.1884 24.0471 74.8277 22.0696 74.8277 19.9111C74.8277 17.4391 72.8208 13.5094 70.835 10.2261C70.4296 9.55589 70.0249 8.91211 69.6388 8.31358C68.1725 6.04227 66.9675 4.41699 66.9675 4.41699C66.9675 4.41699 59.1074 15.0193 59.1074 19.9111C59.1074 24.8031 62.3892 28.7688 66.9675 28.7688C67.344 28.7688 67.7112 28.7408 68.0688 28.6887C67.4762 28.3391 66.9236 27.9143 66.4177 27.4171L65.4019 26.4187C64.3997 26.131 63.511 25.5598 62.7838 24.7227C61.7008 23.4761 61.1041 21.7673 61.1041 19.9111C61.1041 19.1804 61.4561 16.8967 64.7164 11.4843C65.5112 10.1652 66.3088 8.94453 66.968 7.97106C67.3804 8.58009 67.8473 9.28682 68.3348 10.0558V10.0558ZM68.3348 10.0558L68.335 10.056C68.335 10.0559 68.3348 10.0559 68.3348 10.0558ZM66.9675 4.41699C66.9675 4.41699 66.9675 4.41699 66.9675 4.41712C66.9675 4.41699 66.9675 4.41699 66.9675 4.41699Z" fill="black" fill-opacity="0.72"/>
</g>
<path id="Vector_5" d="M29.3662 37.0766V36.4651H27.6229C27.5774 36.4651 27.5386 36.5153 27.5386 36.574V37.1855H29.282C29.3272 37.1855 29.3662 37.1351 29.3662 37.0766ZM34.7194 32.9638L35.1147 31.9502H34.5833C34.5314 31.9502 34.4731 32.0005 34.4602 32.0591L34.1361 33.0811H34.5962C34.648 33.0811 34.7064 33.0307 34.7194 32.9638ZM36.3589 34.2872V33.7846C36.3589 33.7261 36.3266 33.6757 36.2748 33.6757H32.7492C32.7039 33.6757 32.6649 33.7261 32.6649 33.7846V34.3961H35.6527L32.5482 39.1371C32.4964 39.2209 32.464 39.3214 32.464 39.4386V39.8575C32.464 39.9162 32.5029 39.9664 32.5482 39.9664H36.2748C36.3266 39.9664 36.3589 39.9162 36.3589 39.8575V39.246H33.2353L36.2748 34.5888C36.3266 34.5134 36.3589 34.4044 36.3589 34.2872ZM37.6423 36.951H37.6552C37.7006 37.1101 37.8366 37.177 38.0181 37.177H39.0357L40.0208 39.8658C40.0402 39.9162 40.0919 39.9664 40.1374 39.9664H40.701L39.6643 37.1351C40.1374 36.976 40.5456 36.574 40.5456 35.8369V35.0243C40.5456 34.1699 40.0531 33.6757 39.4439 33.6757H37.409C37.2015 33.6757 37.0331 33.8935 37.0331 34.1616V39.9664H37.558C37.6033 39.9664 37.6423 39.9162 37.6423 39.8575V36.951ZM37.7655 36.4567C37.7006 36.4567 37.6423 36.3897 37.6423 36.2976V34.5552C37.6423 34.4715 37.694 34.3961 37.7655 34.3961H39.4439C39.716 34.3961 39.9365 34.6808 39.9365 35.0328V35.8201C39.9365 36.1719 39.716 36.4567 39.4439 36.4567H37.7655ZM43.3713 33.0057L43.6436 32.1513H43.1833C43.138 32.1513 43.0927 32.1932 43.0731 32.2518L42.7944 33.0978H43.2547C43.3 33.0978 43.352 33.0559 43.3713 33.0057ZM43.7796 39.9999H42.3149C41.7057 39.9999 41.2133 39.3632 41.2133 38.5759V35.0662C41.2133 34.2788 41.7057 33.6422 42.3149 33.6422H43.7796C44.3822 33.6422 44.8812 34.2788 44.8812 35.0662V38.5759C44.8812 39.3632 44.3822 39.9999 43.7796 39.9999ZM42.3149 34.3626C42.0427 34.3626 41.8223 34.6475 41.8223 34.9993V38.643C41.8223 38.9948 42.0427 39.2795 42.3149 39.2795H43.7796C44.0517 39.2795 44.2721 38.9948 44.2721 38.643V34.9993C44.2721 34.6475 44.0517 34.3626 43.7796 34.3626H42.3149ZM46.0479 39.9664H48.1282C48.7374 39.9664 49.2299 39.3214 49.2299 38.5424V35.0997C49.2299 34.3124 48.7374 33.6757 48.1282 33.6757H46.0479C45.8406 33.6757 45.6721 33.8935 45.6721 34.1616V39.4805C45.6721 39.7485 45.8406 39.9664 46.0479 39.9664ZM48.1282 39.246H46.4043C46.3331 39.246 46.2812 39.1706 46.2812 39.0869V34.5552C46.2812 34.4632 46.3331 34.3961 46.4043 34.3961H48.1282C48.4005 34.3961 48.6207 34.6808 48.6207 35.0328V38.6095C48.6207 38.9612 48.4005 39.246 48.1282 39.246ZM53.2869 39.246H51.265C50.9862 39.246 50.766 38.9529 50.766 38.5926V36.5321L51.4723 35.8788C51.5113 35.8453 51.5436 35.7615 51.5436 35.7028V35.0997L50.766 35.8201V33.6757H50.2345C50.1891 33.6757 50.1503 33.7261 50.1503 33.7846V36.3897L49.6837 36.8504C49.6447 36.8839 49.6122 36.9593 49.6122 37.0179V37.621L50.1503 37.1016V38.5257C50.1503 39.3214 50.6493 39.9664 51.265 39.9664H53.3712V39.3549C53.3712 39.2963 53.3324 39.246 53.2869 39.246ZM55.0173 39.9999H56.4821C57.0848 39.9999 57.5838 39.3632 57.5838 38.5759V35.0662C57.5838 34.2788 57.0848 33.6422 56.4821 33.6422H55.0173C54.4081 33.6422 53.9156 34.2788 53.9156 35.0662V38.5759C53.9156 39.3632 54.4081 39.9999 55.0173 39.9999ZM55.0173 34.3626H56.4821C56.7541 34.3626 56.9746 34.6475 56.9746 34.9993V38.643C56.9746 38.9948 56.7541 39.2795 56.4821 39.2795H55.0173C54.7452 39.2795 54.5247 38.9948 54.5247 38.643V34.9993C54.5247 34.6475 54.7452 34.3626 55.0173 34.3626ZM60.6298 33.6757C60.5843 33.6757 60.5456 33.7261 60.5456 33.7846V34.3961H61.9974V39.9664H62.5222C62.574 39.9664 62.6065 39.9162 62.6065 39.8575V34.3961H63.9934C64.0386 34.3961 64.0775 34.3459 64.0775 34.2872V33.6757H60.6298ZM69.3983 33.6757C69.353 33.6757 69.3141 33.7261 69.3141 33.7846V39.0869C69.3141 39.1706 69.2556 39.246 69.1909 39.246H67.681C67.6097 39.246 67.5576 39.1706 67.5576 39.0869V33.7846C67.5576 33.7261 67.5188 33.6757 67.4736 33.6757H66.9486V38.844C66.9486 39.0115 67.0004 39.1539 67.0782 39.246H65.6912C65.406 39.246 65.1922 38.9863 65.1922 38.643V33.7846C65.1922 33.7261 65.1533 33.6757 65.1081 33.6757H64.5829V38.5759C64.5829 39.3549 65.0691 39.9664 65.6912 39.9664H69.5474C69.7547 39.9664 69.9233 39.7485 69.9233 39.4805V33.6757H69.3983ZM71.7963 39.9999H73.2609C73.8635 39.9999 74.3625 39.3632 74.3625 38.5759V35.0662C74.3625 34.2788 73.8635 33.6422 73.2609 33.6422H71.7963C71.187 33.6422 70.6946 34.2788 70.6946 35.0662V38.5759C70.6946 39.3632 71.187 39.9999 71.7963 39.9999ZM71.7963 34.3626H73.2609C73.5331 34.3626 73.7535 34.6475 73.7535 34.9993V38.643C73.7535 38.9948 73.5331 39.2795 73.2609 39.2795H71.7963C71.5241 39.2795 71.3037 38.9948 71.3037 38.643V34.9993C71.3037 34.6475 71.5241 34.3626 71.7963 34.3626ZM74.9913 39.9664H76.4689C77.0716 39.9664 77.5641 39.3297 77.5641 38.5508V33.6841H76.1837V34.2872C76.1837 34.3459 76.2225 34.3961 76.268 34.3961H76.9549V38.6178C76.9549 38.9696 76.7347 39.2543 76.4689 39.2543H74.9071V39.8575C74.9071 39.9162 74.9459 39.9664 74.9913 39.9664ZM79.4501 34.3961H81.5499C81.5952 34.3961 81.6341 34.3459 81.6341 34.2872V33.6757H79.4501C78.841 33.6757 78.3484 34.3124 78.3484 35.0997V38.5424C78.3484 39.3297 78.841 39.9664 79.4501 39.9664H81.6341V39.3549C81.6341 39.2963 81.5952 39.246 81.5499 39.246H79.4501C79.178 39.246 78.9576 38.9612 78.9576 38.6095V37.177H81.3231C81.3684 37.177 81.4072 37.1268 81.4072 37.0682V36.4567H79.275C79.139 36.4567 79.0223 36.5237 78.9576 36.6242V35.0328C78.9576 34.6808 79.178 34.3961 79.4501 34.3961ZM82.0814 39.9664H83.559C84.1617 39.9664 84.6544 39.3297 84.6544 38.5508V33.6841H83.2738V34.2872C83.2738 34.3459 83.3127 34.3961 83.3581 34.3961H84.0451V38.6178C84.0451 38.9696 83.8247 39.2543 83.559 39.2543H81.997V39.8575C81.997 39.9162 82.036 39.9664 82.0814 39.9664ZM92.7163 33.6757C92.6711 33.6757 92.6321 33.7261 92.6321 33.7846V39.0869C92.6321 39.1706 92.5739 39.246 92.509 39.246H90.999C90.9277 39.246 90.8758 39.1706 90.8758 39.0869V33.7846C90.8758 33.7261 90.837 33.6757 90.7917 33.6757H90.2667V38.844C90.2667 39.0115 90.3186 39.1539 90.3962 39.246H89.0094C88.7243 39.246 88.5104 38.9863 88.5104 38.643V33.7846C88.5104 33.7261 88.4714 33.6757 88.426 33.6757H87.9011V38.5759C87.9011 39.3549 88.3872 39.9664 89.0094 39.9664H92.8654C93.0729 39.9664 93.2414 39.7485 93.2414 39.4805V33.6757H92.7163ZM95.1144 39.9999H96.579C97.1816 39.9999 97.6807 39.3632 97.6807 38.5759V35.0662C97.6807 34.2788 97.1816 33.6422 96.579 33.6422H95.1144C94.5052 33.6422 94.0127 34.2788 94.0127 35.0662V38.5759C94.0127 39.3632 94.5052 39.9999 95.1144 39.9999ZM95.1144 34.3626H96.579C96.8511 34.3626 97.0716 34.6475 97.0716 34.9993V38.643C97.0716 38.9948 96.8511 39.2795 96.579 39.2795H95.1144C94.8422 39.2795 94.6217 38.9948 94.6217 38.643V34.9993C94.6217 34.6475 94.8422 34.3626 95.1144 34.3626ZM98.8473 39.9664H100.928C101.537 39.9664 102.029 39.3214 102.029 38.5424V35.0997C102.029 34.3124 101.537 33.6757 100.928 33.6757H98.8473C98.6399 33.6757 98.4715 33.8935 98.4715 34.1616V39.4805C98.4715 39.7485 98.6399 39.9664 98.8473 39.9664ZM100.928 39.246H99.2038C99.1325 39.246 99.0806 39.1706 99.0806 39.0869V34.5552C99.0806 34.4632 99.1325 34.3961 99.2038 34.3961H100.928C101.2 34.3961 101.42 34.6808 101.42 35.0328V38.6095C101.42 38.9612 101.2 39.246 100.928 39.246ZM106.119 33.6757C106.073 33.6757 106.022 33.7261 106.002 33.7763L105.192 36.5153C105.166 36.599 105.088 36.6661 105.024 36.6661H104.213C104.149 36.6661 104.071 36.599 104.045 36.5153L103.235 33.7763C103.215 33.7261 103.163 33.6757 103.118 33.6757H102.548L103.54 36.9341C103.611 37.1855 103.773 37.4032 104.051 37.4032L104.311 37.4117V39.9664H104.842C104.887 39.9664 104.926 39.9162 104.926 39.8575V37.4117H105.218C105.471 37.4117 105.626 37.1855 105.697 36.9341L106.689 33.6757H106.119ZM111.498 37.0766V36.4651H109.755C109.709 36.4651 109.67 36.5153 109.67 36.574V37.1855H111.414C111.459 37.1855 111.498 37.1351 111.498 37.0766Z" fill="black" fill-opacity="0.72"/>
</g>
</svg>
