<svg width="89" height="35" viewBox="0 0 89 35" fill="none" xmlns="http://www.w3.org/2000/svg">
<g id="AQUA-TEX Beskidy">
<path d="M8.85519 9.408H3.25519L2.15119 12H0.00718872L5.04719 0.799999H7.09519L12.1512 12H9.97519L8.85519 9.408ZM8.16719 7.776L6.05519 2.88L3.95919 7.776H8.16719ZM25.5633 13.12C25.19 13.5573 24.7526 13.888 24.2513 14.112C23.7606 14.336 23.222 14.448 22.6353 14.448C21.8673 14.448 21.1633 14.272 20.5233 13.92C19.8833 13.5787 19.1526 12.9813 18.3313 12.128C17.2966 12.0427 16.3686 11.744 15.5473 11.232C14.726 10.7093 14.086 10.032 13.6273 9.2C13.1686 8.35733 12.9393 7.424 12.9393 6.4C12.9393 5.312 13.2006 4.33067 13.7233 3.456C14.246 2.57067 14.966 1.88267 15.8833 1.392C16.8006 0.890666 17.83 0.639999 18.9713 0.639999C20.1126 0.639999 21.142 0.890666 22.0593 1.392C22.9766 1.88267 23.6966 2.56533 24.2193 3.44C24.742 4.31467 25.0033 5.30133 25.0033 6.4C25.0033 7.28533 24.8273 8.10667 24.4753 8.864C24.1233 9.61067 23.6326 10.2507 23.0033 10.784C22.374 11.3067 21.6433 11.6853 20.8113 11.92C21.1206 12.2507 21.4246 12.4907 21.7233 12.64C22.022 12.7893 22.342 12.864 22.6833 12.864C23.4193 12.864 24.0593 12.5653 24.6033 11.968L25.5633 13.12ZM15.0353 6.4C15.0353 7.14667 15.206 7.824 15.5473 8.432C15.8886 9.02933 16.358 9.49867 16.9553 9.84C17.5526 10.1707 18.2246 10.336 18.9713 10.336C19.718 10.336 20.39 10.1707 20.9873 9.84C21.5846 9.49867 22.054 9.02933 22.3953 8.432C22.7366 7.824 22.9073 7.14667 22.9073 6.4C22.9073 5.65333 22.7366 4.98133 22.3953 4.384C22.054 3.776 21.5846 3.30667 20.9873 2.976C20.39 2.63467 19.718 2.464 18.9713 2.464C18.2246 2.464 17.5526 2.63467 16.9553 2.976C16.358 3.30667 15.8886 3.776 15.5473 4.384C15.206 4.98133 15.0353 5.65333 15.0353 6.4ZM32.3441 12.16C30.7974 12.16 29.5921 11.728 28.7281 10.864C27.8641 9.98933 27.4321 8.74133 27.4321 7.12V0.799999H29.5121V7.04C29.5121 9.23733 30.4614 10.336 32.3601 10.336C34.2481 10.336 35.1921 9.23733 35.1921 7.04V0.799999H37.2401V7.12C37.2401 8.74133 36.8081 9.98933 35.9441 10.864C35.0907 11.728 33.8907 12.16 32.3441 12.16ZM47.5027 9.408H41.9027L40.7987 12H38.6547L43.6947 0.799999H45.7427L50.7987 12H48.6227L47.5027 9.408ZM46.8147 7.776L44.7027 2.88L42.6067 7.776H46.8147ZM51.6066 6.72H56.0066V8.384H51.6066V6.72ZM60.4163 2.56H56.7043V0.799999H66.2083V2.56H62.4963V12H60.4163V2.56ZM76.4893 10.256V12H68.0893V0.799999H76.2653V2.544H70.1693V5.456H75.5773V7.168H70.1693V10.256H76.4893ZM86.0591 12L83.0191 7.744L80.0111 12H77.6431L81.8031 6.288L77.8671 0.799999H80.2191L83.0831 4.784L85.9151 0.799999H88.1711L84.2511 6.208L88.4591 12H86.0591Z" fill="#176ED3"/>
<path d="M20.9981 25.224C21.7341 25.384 22.2995 25.704 22.6941 26.184C23.0995 26.6533 23.3021 27.2613 23.3021 28.008C23.3021 28.968 22.9448 29.7093 22.2301 30.232C21.5261 30.744 20.4808 31 19.0941 31H13.9421V19.8H18.7741C20.0221 19.8 20.9875 20.0507 21.6701 20.552C22.3635 21.0533 22.7101 21.7627 22.7101 22.68C22.7101 23.2987 22.5555 23.8267 22.2461 24.264C21.9475 24.6907 21.5315 25.0107 20.9981 25.224ZM15.1261 20.776V24.84H18.6941C19.6008 24.84 20.2995 24.6693 20.7901 24.328C21.2808 23.976 21.5261 23.4693 21.5261 22.808C21.5261 22.1467 21.2808 21.6453 20.7901 21.304C20.2995 20.952 19.6008 20.776 18.6941 20.776H15.1261ZM19.0781 30.024C20.0808 30.024 20.8381 29.8533 21.3501 29.512C21.8621 29.1707 22.1181 28.6373 22.1181 27.912C22.1181 26.5147 21.1048 25.816 19.0781 25.816H15.1261V30.024H19.0781ZM33.4126 27.144H26.3726C26.4366 28.0187 26.7726 28.728 27.3806 29.272C27.9886 29.8053 28.7566 30.072 29.6846 30.072C30.2073 30.072 30.6873 29.9813 31.1246 29.8C31.562 29.608 31.9406 29.3307 32.2606 28.968L32.9006 29.704C32.5273 30.152 32.058 30.4933 31.4926 30.728C30.938 30.9627 30.3246 31.08 29.6526 31.08C28.7886 31.08 28.0206 30.8987 27.3486 30.536C26.6873 30.1627 26.17 29.6507 25.7966 29C25.4233 28.3493 25.2366 27.6133 25.2366 26.792C25.2366 25.9707 25.4126 25.2347 25.7646 24.584C26.1273 23.9333 26.618 23.4267 27.2366 23.064C27.866 22.7013 28.57 22.52 29.3486 22.52C30.1273 22.52 30.826 22.7013 31.4446 23.064C32.0633 23.4267 32.5486 23.9333 32.9006 24.584C33.2526 25.224 33.4286 25.96 33.4286 26.792L33.4126 27.144ZM29.3486 23.496C28.538 23.496 27.8553 23.7573 27.3006 24.28C26.7566 24.792 26.4473 25.464 26.3726 26.296H32.3406C32.266 25.464 31.9513 24.792 31.3966 24.28C30.8526 23.7573 30.17 23.496 29.3486 23.496ZM38.3169 31.08C37.6342 31.08 36.9782 30.984 36.3489 30.792C35.7302 30.5893 35.2449 30.3387 34.8929 30.04L35.4049 29.144C35.7569 29.4213 36.1995 29.6507 36.7329 29.832C37.2662 30.0027 37.8209 30.088 38.3969 30.088C39.1649 30.088 39.7302 29.9707 40.0929 29.736C40.4662 29.4907 40.6529 29.1493 40.6529 28.712C40.6529 28.4027 40.5515 28.1627 40.3489 27.992C40.1462 27.8107 39.8902 27.6773 39.5809 27.592C39.2715 27.496 38.8609 27.4053 38.3489 27.32C37.6662 27.192 37.1169 27.064 36.7009 26.936C36.2849 26.7973 35.9275 26.568 35.6289 26.248C35.3409 25.928 35.1969 25.4853 35.1969 24.92C35.1969 24.216 35.4902 23.64 36.0769 23.192C36.6635 22.744 37.4795 22.52 38.5249 22.52C39.0689 22.52 39.6129 22.5947 40.1569 22.744C40.7009 22.8827 41.1489 23.0693 41.5009 23.304L41.0049 24.216C40.3115 23.736 39.4849 23.496 38.5249 23.496C37.7995 23.496 37.2502 23.624 36.8769 23.88C36.5142 24.136 36.3329 24.472 36.3329 24.888C36.3329 25.208 36.4342 25.464 36.6369 25.656C36.8502 25.848 37.1115 25.992 37.4209 26.088C37.7302 26.1733 38.1569 26.264 38.7009 26.36C39.3729 26.488 39.9115 26.616 40.3169 26.744C40.7222 26.872 41.0689 27.0907 41.3569 27.4C41.6449 27.7093 41.7889 28.136 41.7889 28.68C41.7889 29.416 41.4795 30.0027 40.8609 30.44C40.2529 30.8667 39.4049 31.08 38.3169 31.08ZM47.329 26.776L45.345 28.6V31H44.209V19.128H45.345V27.176L50.369 22.584H51.777L48.177 26.024L52.113 31H50.721L47.329 26.776ZM54.0134 22.584H55.1494V31H54.0134V22.584ZM54.5894 20.744C54.3547 20.744 54.1574 20.664 53.9974 20.504C53.8374 20.344 53.7574 20.152 53.7574 19.928C53.7574 19.7147 53.8374 19.528 53.9974 19.368C54.1574 19.208 54.3547 19.128 54.5894 19.128C54.824 19.128 55.0214 19.208 55.1814 19.368C55.3414 19.5173 55.4214 19.6987 55.4214 19.912C55.4214 20.1467 55.3414 20.344 55.1814 20.504C55.0214 20.664 54.824 20.744 54.5894 20.744ZM66.3103 19.128V31H65.2222V29.336C64.8809 29.9013 64.4276 30.3333 63.8622 30.632C63.3076 30.9307 62.6782 31.08 61.9742 31.08C61.1849 31.08 60.4702 30.8987 59.8302 30.536C59.1902 30.1733 58.6889 29.6667 58.3262 29.016C57.9636 28.3653 57.7822 27.624 57.7822 26.792C57.7822 25.96 57.9636 25.2187 58.3262 24.568C58.6889 23.9173 59.1902 23.416 59.8302 23.064C60.4702 22.7013 61.1849 22.52 61.9742 22.52C62.6569 22.52 63.2702 22.664 63.8142 22.952C64.3689 23.2293 64.8222 23.64 65.1742 24.184V19.128H66.3103ZM62.0702 30.072C62.6569 30.072 63.1849 29.9387 63.6542 29.672C64.1342 29.3947 64.5076 29.0053 64.7742 28.504C65.0516 28.0027 65.1902 27.432 65.1902 26.792C65.1902 26.152 65.0516 25.5813 64.7742 25.08C64.5076 24.5787 64.1342 24.1947 63.6542 23.928C63.1849 23.6507 62.6569 23.512 62.0702 23.512C61.4729 23.512 60.9342 23.6507 60.4542 23.928C59.9849 24.1947 59.6116 24.5787 59.3342 25.08C59.0676 25.5813 58.9342 26.152 58.9342 26.792C58.9342 27.432 59.0676 28.0027 59.3342 28.504C59.6116 29.0053 59.9849 29.3947 60.4542 29.672C60.9342 29.9387 61.4729 30.072 62.0702 30.072ZM76.866 22.584L72.658 32.008C72.3167 32.7973 71.922 33.3573 71.474 33.688C71.026 34.0187 70.4873 34.184 69.858 34.184C69.4527 34.184 69.074 34.12 68.722 33.992C68.37 33.864 68.066 33.672 67.81 33.416L68.338 32.568C68.7647 32.9947 69.2767 33.208 69.874 33.208C70.258 33.208 70.5833 33.1013 70.85 32.888C71.1273 32.6747 71.3833 32.312 71.618 31.8L71.986 30.984L68.226 22.584H69.41L72.578 29.736L75.746 22.584H76.866Z" fill="black" fill-opacity="0.72"/>
</g>
</svg>
