<svg width="45" height="18" viewBox="0 0 45 18" fill="none" xmlns="http://www.w3.org/2000/svg">
<g id="AQUA-TEX Beskidy">
<path d="M4.67759 4.704H1.87759L1.32559 6H0.253594L2.77359 0.4H3.79759L6.32559 6H5.23759L4.67759 4.704ZM4.33359 3.888L3.27759 1.44L2.22959 3.888H4.33359ZM13.0317 6.56C12.845 6.77867 12.6263 6.944 12.3757 7.056C12.1303 7.168 11.861 7.224 11.5677 7.224C11.1837 7.224 10.8317 7.136 10.5117 6.96C10.1917 6.78933 9.82632 6.49067 9.41566 6.064C8.89832 6.02133 8.43432 5.872 8.02366 5.616C7.61299 5.35467 7.29299 5.016 7.06366 4.6C6.83432 4.17867 6.71966 3.712 6.71966 3.2C6.71966 2.656 6.85032 2.16533 7.11166 1.728C7.37299 1.28533 7.73299 0.941333 8.19166 0.696C8.65032 0.445333 9.16499 0.32 9.73566 0.32C10.3063 0.32 10.821 0.445333 11.2797 0.696C11.7383 0.941333 12.0983 1.28267 12.3597 1.72C12.621 2.15733 12.7517 2.65067 12.7517 3.2C12.7517 3.64267 12.6637 4.05333 12.4877 4.432C12.3117 4.80533 12.0663 5.12533 11.7517 5.392C11.437 5.65333 11.0717 5.84267 10.6557 5.96C10.8103 6.12533 10.9623 6.24533 11.1117 6.32C11.261 6.39467 11.421 6.432 11.5917 6.432C11.9597 6.432 12.2797 6.28267 12.5517 5.984L13.0317 6.56ZM7.76766 3.2C7.76766 3.57333 7.85299 3.912 8.02366 4.216C8.19432 4.51467 8.42899 4.74933 8.72766 4.92C9.02632 5.08533 9.36232 5.168 9.73566 5.168C10.109 5.168 10.445 5.08533 10.7437 4.92C11.0423 4.74933 11.277 4.51467 11.4477 4.216C11.6183 3.912 11.7037 3.57333 11.7037 3.2C11.7037 2.82667 11.6183 2.49067 11.4477 2.192C11.277 1.888 11.0423 1.65333 10.7437 1.488C10.445 1.31733 10.109 1.232 9.73566 1.232C9.36232 1.232 9.02632 1.31733 8.72766 1.488C8.42899 1.65333 8.19432 1.888 8.02366 2.192C7.85299 2.49067 7.76766 2.82667 7.76766 3.2ZM16.422 6.08C15.6487 6.08 15.046 5.864 14.614 5.432C14.182 4.99467 13.966 4.37067 13.966 3.56V0.4H15.006V3.52C15.006 4.61867 15.4807 5.168 16.43 5.168C17.374 5.168 17.846 4.61867 17.846 3.52V0.4H18.87V3.56C18.87 4.37067 18.654 4.99467 18.222 5.432C17.7954 5.864 17.1954 6.08 16.422 6.08ZM24.0013 4.704H21.2013L20.6493 6H19.5773L22.0973 0.4H23.1213L25.6493 6H24.5613L24.0013 4.704ZM23.6573 3.888L22.6013 1.44L21.5533 3.888H23.6573ZM26.0533 3.36H28.2533V4.192H26.0533V3.36ZM30.4582 1.28H28.6022V0.4H33.3542V1.28H31.4982V6H30.4582V1.28ZM38.4947 5.128V6H34.2947V0.4H38.3827V1.272H35.3347V2.728H38.0387V3.584H35.3347V5.128H38.4947ZM43.2795 6L41.7595 3.872L40.2555 6H39.0715L41.1515 3.144L39.1835 0.4H40.3595L41.7915 2.392L43.2075 0.4H44.3355L42.3755 3.104L44.4795 6H43.2795Z" fill="#176ED3"/>
<path d="M10.7491 13.112C11.1171 13.192 11.3997 13.352 11.5971 13.592C11.7997 13.8267 11.9011 14.1307 11.9011 14.504C11.9011 14.984 11.7224 15.3547 11.3651 15.616C11.0131 15.872 10.4904 16 9.79706 16H7.22106V10.4H9.63706C10.2611 10.4 10.7437 10.5253 11.0851 10.776C11.4317 11.0267 11.6051 11.3813 11.6051 11.84C11.6051 12.1493 11.5277 12.4133 11.3731 12.632C11.2237 12.8453 11.0157 13.0053 10.7491 13.112ZM7.81306 10.888V12.92H9.59706C10.0504 12.92 10.3997 12.8347 10.6451 12.664C10.8904 12.488 11.0131 12.2347 11.0131 11.904C11.0131 11.5733 10.8904 11.3227 10.6451 11.152C10.3997 10.976 10.0504 10.888 9.59706 10.888H7.81306ZM9.78906 15.512C10.2904 15.512 10.6691 15.4267 10.9251 15.256C11.1811 15.0853 11.3091 14.8187 11.3091 14.456C11.3091 13.7573 10.8024 13.408 9.78906 13.408H7.81306V15.512H9.78906ZM16.9563 14.072H13.4363C13.4683 14.5093 13.6363 14.864 13.9403 15.136C14.2443 15.4027 14.6283 15.536 15.0923 15.536C15.3536 15.536 15.5936 15.4907 15.8123 15.4C16.031 15.304 16.2203 15.1653 16.3803 14.984L16.7003 15.352C16.5136 15.576 16.279 15.7467 15.9963 15.864C15.719 15.9813 15.4123 16.04 15.0763 16.04C14.6443 16.04 14.2603 15.9493 13.9243 15.768C13.5936 15.5813 13.335 15.3253 13.1483 15C12.9616 14.6747 12.8683 14.3067 12.8683 13.896C12.8683 13.4853 12.9563 13.1173 13.1323 12.792C13.3136 12.4667 13.559 12.2133 13.8683 12.032C14.183 11.8507 14.535 11.76 14.9243 11.76C15.3136 11.76 15.663 11.8507 15.9723 12.032C16.2816 12.2133 16.5243 12.4667 16.7003 12.792C16.8763 13.112 16.9643 13.48 16.9643 13.896L16.9563 14.072ZM14.9243 12.248C14.519 12.248 14.1776 12.3787 13.9003 12.64C13.6283 12.896 13.4736 13.232 13.4363 13.648H16.4203C16.383 13.232 16.2256 12.896 15.9483 12.64C15.6763 12.3787 15.335 12.248 14.9243 12.248ZM19.4084 16.04C19.0671 16.04 18.7391 15.992 18.4244 15.896C18.1151 15.7947 17.8724 15.6693 17.6964 15.52L17.9524 15.072C18.1284 15.2107 18.3498 15.3253 18.6164 15.416C18.8831 15.5013 19.1604 15.544 19.4484 15.544C19.8324 15.544 20.1151 15.4853 20.2964 15.368C20.4831 15.2453 20.5764 15.0747 20.5764 14.856C20.5764 14.7013 20.5258 14.5813 20.4244 14.496C20.3231 14.4053 20.1951 14.3387 20.0404 14.296C19.8858 14.248 19.6804 14.2027 19.4244 14.16C19.0831 14.096 18.8084 14.032 18.6004 13.968C18.3924 13.8987 18.2138 13.784 18.0644 13.624C17.9204 13.464 17.8484 13.2427 17.8484 12.96C17.8484 12.608 17.9951 12.32 18.2884 12.096C18.5818 11.872 18.9898 11.76 19.5124 11.76C19.7844 11.76 20.0564 11.7973 20.3284 11.872C20.6004 11.9413 20.8244 12.0347 21.0004 12.152L20.7524 12.608C20.4058 12.368 19.9924 12.248 19.5124 12.248C19.1498 12.248 18.8751 12.312 18.6884 12.44C18.5071 12.568 18.4164 12.736 18.4164 12.944C18.4164 13.104 18.4671 13.232 18.5684 13.328C18.6751 13.424 18.8058 13.496 18.9604 13.544C19.1151 13.5867 19.3284 13.632 19.6004 13.68C19.9364 13.744 20.2058 13.808 20.4084 13.872C20.6111 13.936 20.7844 14.0453 20.9284 14.2C21.0724 14.3547 21.1444 14.568 21.1444 14.84C21.1444 15.208 20.9898 15.5013 20.6804 15.72C20.3764 15.9333 19.9524 16.04 19.4084 16.04ZM23.9145 13.888L22.9225 14.8V16H22.3545V10.064H22.9225V14.088L25.4345 11.792H26.1385L24.3385 13.512L26.3065 16H25.6105L23.9145 13.888ZM27.2567 11.792H27.8247V16H27.2567V11.792ZM27.5447 10.872C27.4274 10.872 27.3287 10.832 27.2487 10.752C27.1687 10.672 27.1287 10.576 27.1287 10.464C27.1287 10.3573 27.1687 10.264 27.2487 10.184C27.3287 10.104 27.4274 10.064 27.5447 10.064C27.662 10.064 27.7607 10.104 27.8407 10.184C27.9207 10.2587 27.9607 10.3493 27.9607 10.456C27.9607 10.5733 27.9207 10.672 27.8407 10.752C27.7607 10.832 27.662 10.872 27.5447 10.872ZM33.4051 10.064V16H32.8611V15.168C32.6905 15.4507 32.4638 15.6667 32.1811 15.816C31.9038 15.9653 31.5891 16.04 31.2371 16.04C30.8425 16.04 30.4851 15.9493 30.1651 15.768C29.8451 15.5867 29.5945 15.3333 29.4131 15.008C29.2318 14.6827 29.1411 14.312 29.1411 13.896C29.1411 13.48 29.2318 13.1093 29.4131 12.784C29.5945 12.4587 29.8451 12.208 30.1651 12.032C30.4851 11.8507 30.8425 11.76 31.2371 11.76C31.5785 11.76 31.8851 11.832 32.1571 11.976C32.4345 12.1147 32.6611 12.32 32.8371 12.592V10.064H33.4051ZM31.2851 15.536C31.5785 15.536 31.8425 15.4693 32.0771 15.336C32.3171 15.1973 32.5038 15.0027 32.6371 14.752C32.7758 14.5013 32.8451 14.216 32.8451 13.896C32.8451 13.576 32.7758 13.2907 32.6371 13.04C32.5038 12.7893 32.3171 12.5973 32.0771 12.464C31.8425 12.3253 31.5785 12.256 31.2851 12.256C30.9865 12.256 30.7171 12.3253 30.4771 12.464C30.2425 12.5973 30.0558 12.7893 29.9171 13.04C29.7838 13.2907 29.7171 13.576 29.7171 13.896C29.7171 14.216 29.7838 14.5013 29.9171 14.752C30.0558 15.0027 30.2425 15.1973 30.4771 15.336C30.7171 15.4693 30.9865 15.536 31.2851 15.536ZM38.683 11.792L36.579 16.504C36.4083 16.8987 36.211 17.1787 35.987 17.344C35.763 17.5093 35.4937 17.592 35.179 17.592C34.9763 17.592 34.787 17.56 34.611 17.496C34.435 17.432 34.283 17.336 34.155 17.208L34.419 16.784C34.6323 16.9973 34.8883 17.104 35.187 17.104C35.379 17.104 35.5417 17.0507 35.675 16.944C35.8137 16.8373 35.9417 16.656 36.059 16.4L36.243 15.992L34.363 11.792H34.955L36.539 15.368L38.123 11.792H38.683Z" fill="black" fill-opacity="0.72"/>
</g>
</svg>
