<svg width="125" height="36" viewBox="0 0 125 36" fill="none" xmlns="http://www.w3.org/2000/svg">
<g id="AQUA-TEX_Beskidy">
<path id="Vector" d="M17.2208 22.9583L17.0064 22.328L16.8454 21.8694H6.14454L5.20573 25.0502H2.20214L7.59277 9.08914H11.4548L14.6998 18.7174H11.9911L9.52371 10.35L6.73458 19.8063H16.1481L15.7995 18.7174L12.1788 8.00023H6.86861L0.753906 26.1391H5.9567L6.89551 22.9583H12.1788L13.1175 26.1391H18.2937L17.2208 22.9583ZM8.12911 18.7174L9.52371 13.9892L10.9183 18.7174H8.12911ZM13.8684 25.0502L13.2516 22.9583H16.1481L16.8454 25.0502H13.8684V25.0502ZM33.983 22.0987L33.9561 22.0414C34.8412 20.5226 35.3239 18.6887 35.3239 16.7688C35.3239 14.1611 34.4656 11.8115 32.8832 10.0921C31.301 8.37276 29.1017 7.39844 26.6881 7.39844C24.3011 7.39844 22.102 8.37276 20.5197 10.0921C18.9372 11.8115 18.079 14.1611 18.079 16.7688C18.079 19.3764 18.9372 21.7549 20.5197 23.4742C22.102 25.1935 24.3011 26.1391 26.6881 26.1391C28.2973 26.1391 29.799 25.7379 31.0863 24.9355L31.7569 25.6806L32.6151 26.5976L35.4312 23.6174L33.983 22.0987V22.0987ZM26.6881 25.0502C22.2897 25.0502 19.0981 21.5542 19.0981 16.7688C19.0981 11.9833 22.2897 8.48735 26.6881 8.48735C31.1132 8.48735 34.3047 11.9833 34.3047 16.7688C34.3047 18.4022 33.9292 19.9209 33.2051 21.2391L31.0328 18.918C31.274 18.2302 31.4082 17.5139 31.4082 16.7688C31.4082 14.1038 29.799 11.4103 26.6881 11.4103C23.6039 11.4103 21.9947 14.1038 21.9947 16.7688C21.9947 19.4337 23.6039 22.1274 26.6881 22.1274C27.2513 22.1274 27.7607 22.0414 28.2436 21.8694L30.3355 24.1333C29.2627 24.7351 28.0289 25.0502 26.6881 25.0502V25.0502ZM33.983 23.6174L32.642 25.0502L32.5078 24.9069L31.2205 23.5315L29.2896 21.4397L28.4582 20.5513C28.1363 20.7519 27.7875 20.8952 27.4122 20.9811C27.3048 20.9811 27.2245 21.0099 27.1172 21.0099C27.0635 21.0099 27.0367 21.0385 27.0099 21.0385C26.9562 21.0385 26.9294 21.0385 26.8757 21.0385C26.849 21.0385 26.7953 21.0385 26.7416 21.0385H26.6881C24.1671 21.0385 23.0138 18.832 23.0138 16.7688C23.0138 14.7056 24.1671 12.5278 26.6881 12.5278C29.2358 12.5278 30.389 14.7056 30.389 16.7688C30.389 17.1986 30.3355 17.6285 30.2281 18.0583V18.0296C30.1209 18.4308 29.9868 18.8033 29.799 19.1472L30.4965 19.8922L30.6037 20.0069L32.6151 22.1847L33.3391 22.9297L33.983 23.6174V23.6174ZM46.6683 7.82826V18.3735C46.6683 20.2361 45.9174 21.1531 44.4155 21.1531C42.8869 21.1531 42.1627 20.2647 42.1627 18.3735V7.82826H41.1436V18.3735C41.1436 20.8665 42.2969 22.242 44.4155 22.242C46.4806 22.242 47.6874 20.8379 47.6874 18.3735V8.91717H50.5572V18.7746C50.5572 22.9583 48.4384 25.1649 44.4155 25.1649C40.3926 25.1649 38.2471 22.9583 38.2471 18.7746V7.82826H37.228V18.7746C37.228 23.6174 39.7758 26.2824 44.4155 26.2824C49.0284 26.2824 51.5763 23.6174 51.5763 18.7746V7.82826H46.6683V7.82826Z" fill="#176ED3"/>
<path id="Vector_2" d="M76.4707 7.14209V12.5276H80.703V26.6023H81.8572V11.3617H77.6249V8.308H89.3322V11.3617H85.0999V26.6023H86.2544V12.5276H90.4863V7.14209H76.4707V7.14209ZM97.5768 19.329H103.458V14.1655H97.5768V12.5276H104.282V7.14209H91.998V15.3314H102.304V18.163H91.998V26.5468H104.502V21.189H97.5768V19.329V19.329ZM96.4226 14.1655H93.1523V8.308H103.128V11.3617H96.4226V14.1655V14.1655ZM103.348 25.3809H93.1523V19.329H96.4226V22.3549H103.348V25.3809ZM122.283 23.6319L121.239 21.994L117.996 16.8861L124.124 7.11426H117.968L114.863 11.9724L111.785 7.11426H105.602L111.757 16.8861L105.602 26.5468H111.895L114.863 21.8553L116.045 23.7152L117.831 26.5468H119.205L118.463 25.3809L117.474 23.7707L117.336 23.5487L115.55 20.7448L114.863 19.6622L113.132 16.8861L112.444 15.8034L107.718 8.28029H111.153L114.176 13.0551L114.863 14.1377L116.622 16.8861L117.309 17.9687L121.266 24.2149L122.008 25.3809L122.778 26.5468H124.152L122.283 23.6319V23.6319ZM114.176 20.7448L111.263 25.3809H107.718L112.444 17.9687L114.176 20.7448V20.7448ZM117.309 15.8034L115.55 13.0551L118.601 8.28029H122.036L117.309 15.8034V15.8034Z" fill="black" fill-opacity="0.72"/>
<g id="Group 120">
<path id="Vector_3" fill-rule="evenodd" clip-rule="evenodd" d="M63.3145 9.48264L64.4197 11.3009C61.7684 15.8318 61.4717 17.7861 61.4717 18.431C61.4717 20.1467 62.0229 21.726 63.024 22.8783C63.4372 23.3537 63.907 23.7349 64.4221 24.0218C65.1282 24.4143 65.9208 24.6253 66.7743 24.643C66.8134 24.644 66.8519 24.6461 66.8909 24.6461C68.4159 24.6461 69.7529 24.0347 70.7578 22.8783C71.7591 21.726 72.3102 20.1467 72.3102 18.431C72.3102 17.7584 71.9871 15.6566 68.994 10.6799C68.2738 9.48235 67.5544 8.37783 66.9527 7.48648C66.723 7.11657 64.1878 3.00635 63.9461 2.63179L63.4905 1.92627C64.1527 0.966006 64.5917 0.374023 64.5917 0.374023C64.5917 0.374023 74.1558 13.9098 74.1558 18.431C74.1558 22.9526 71.1225 26.6179 66.8909 26.6179C66.0107 26.6179 65.1822 26.4587 64.4221 26.1667C63.5365 25.8262 62.7435 25.3054 62.0698 24.643C60.5421 23.1415 59.626 20.9159 59.626 18.431C59.626 16.1472 61.4798 12.5167 63.3145 9.48264V9.48264Z" fill="#176ED3"/>
<path id="Vector_4" fill-rule="evenodd" clip-rule="evenodd" d="M63.2165 9.32203L63.2167 9.32223C63.2496 9.37426 63.2828 9.42669 63.316 9.4793C63.3154 9.48032 63.3147 9.48142 63.3141 9.48244L64.4193 11.3007C64.42 11.2991 64.421 11.2977 64.4217 11.2962L63.316 9.4793L64.4217 11.2962C64.4623 11.3652 64.502 11.4336 64.5414 11.5016C67.0846 15.8905 67.3722 17.7966 67.3722 18.4308C67.3722 20.1465 66.8209 21.7258 65.8195 22.8781C65.6648 23.0564 65.5018 23.2216 65.3315 23.3733C65.785 23.5507 66.2739 23.6464 66.7921 23.6569L67.6033 23.6738C68.6267 22.2536 69.2175 20.4259 69.2175 18.4308C69.2175 16.1462 67.3626 12.5141 65.5273 9.47941C65.1526 8.86001 64.7786 8.265 64.4217 7.71179C63.0664 5.61252 61.9528 4.11035 61.9528 4.11035C61.9528 4.11035 54.688 13.9096 54.688 18.4308C54.688 22.9524 57.7211 26.6177 61.9528 26.6177C62.3007 26.6177 62.6401 26.5917 62.9706 26.5437C62.4229 26.2205 61.9121 25.8279 61.4446 25.3683L60.5057 24.4456C59.5794 24.1796 58.758 23.6517 58.0859 22.8781C57.0849 21.7258 56.5334 20.1465 56.5334 18.4308C56.5334 17.7556 56.8588 15.6448 59.8721 10.6424C60.6067 9.42314 61.3439 8.29495 61.9532 7.39522C62.3343 7.95812 62.7659 8.61132 63.2165 9.32203V9.32203ZM63.2165 9.32203L63.2167 9.32223C63.2167 9.32212 63.2165 9.32212 63.2165 9.32203ZM61.9528 4.11035C61.9528 4.11035 61.9528 4.11035 61.9528 4.11047C61.9528 4.11035 61.9528 4.11035 61.9528 4.11035Z" fill="black" fill-opacity="0.72"/>
</g>
<path id="Vector_5" d="M27.1337 33.6602V33.171H25.5847C25.5442 33.171 25.5098 33.2111 25.5098 33.2581V33.7473H27.0589C27.0991 33.7473 27.1337 33.707 27.1337 33.6602ZM31.8904 30.3696L32.2415 29.5586H31.7694C31.7233 29.5586 31.6714 29.5989 31.66 29.6457L31.372 30.4634H31.7809C31.8269 30.4634 31.8788 30.4231 31.8904 30.3696ZM33.3471 31.4284V31.0263C33.3471 30.9795 33.3184 30.9392 33.2724 30.9392H30.1397C30.0994 30.9392 30.0647 30.9795 30.0647 31.0263V31.5156H32.7196L29.9611 35.3088C29.9151 35.3759 29.8863 35.4562 29.8863 35.5501V35.8852C29.8863 35.9321 29.9209 35.9723 29.9611 35.9723H33.2724C33.3184 35.9723 33.3471 35.9321 33.3471 35.8852V35.3959H30.5716L33.2724 31.6697C33.3184 31.6094 33.3471 31.5222 33.3471 31.4284ZM34.4875 33.5597H34.499C34.5392 33.687 34.6601 33.7405 34.8214 33.7405H35.7255L36.6009 35.8918C36.6181 35.9321 36.6641 35.9723 36.7045 35.9723H37.2053L36.2841 33.707C36.7045 33.5797 37.0672 33.2581 37.0672 32.6683V32.0182C37.0672 31.3346 36.6296 30.9392 36.0883 30.9392H34.2801C34.0958 30.9392 33.9462 31.1135 33.9462 31.3279V35.9723H34.4126C34.4528 35.9723 34.4875 35.9321 34.4875 35.8852V33.5597ZM34.5969 33.1643C34.5392 33.1643 34.4875 33.1106 34.4875 33.0369V31.6429C34.4875 31.5759 34.5334 31.5156 34.5969 31.5156H36.0883C36.3301 31.5156 36.526 31.7434 36.526 32.025V32.6549C36.526 32.9363 36.3301 33.1643 36.0883 33.1643H34.5969ZM39.578 30.4031L39.8199 29.7195H39.411C39.3707 29.7195 39.3305 29.753 39.313 29.7999L39.0654 30.4768H39.4744C39.5146 30.4768 39.5608 30.4432 39.578 30.4031ZM39.9408 35.9991H38.6394C38.098 35.9991 37.6605 35.4897 37.6605 34.8598V32.0517C37.6605 31.4217 38.098 30.9123 38.6394 30.9123H39.9408C40.4762 30.9123 40.9196 31.4217 40.9196 32.0517V34.8598C40.9196 35.4897 40.4762 35.9991 39.9408 35.9991ZM38.6394 31.4888C38.3974 31.4888 38.2016 31.7167 38.2016 31.9981V34.9134C38.2016 35.1949 38.3974 35.4227 38.6394 35.4227H39.9408C40.1826 35.4227 40.3784 35.1949 40.3784 34.9134V31.9981C40.3784 31.7167 40.1826 31.4888 39.9408 31.4888H38.6394ZM41.9563 35.9723H43.8047C44.3461 35.9723 44.7836 35.4562 44.7836 34.833V32.0785C44.7836 31.4486 44.3461 30.9392 43.8047 30.9392H41.9563C41.7721 30.9392 41.6224 31.1135 41.6224 31.3279V35.5836C41.6224 35.798 41.7721 35.9723 41.9563 35.9723ZM43.8047 35.3959H42.273C42.2097 35.3959 42.1636 35.3356 42.1636 35.2686V31.6429C42.1636 31.5692 42.2097 31.5156 42.273 31.5156H43.8047C44.0467 31.5156 44.2424 31.7434 44.2424 32.025V34.8866C44.2424 35.1681 44.0467 35.3959 43.8047 35.3959ZM48.3885 35.3959H46.592C46.3442 35.3959 46.1486 35.1614 46.1486 34.8732V33.2246L46.7762 32.7018C46.8108 32.675 46.8395 32.608 46.8395 32.5611V32.0785L46.1486 32.6549V30.9392H45.6763C45.636 30.9392 45.6015 30.9795 45.6015 31.0263V33.1106L45.1869 33.4792C45.1523 33.506 45.1234 33.5664 45.1234 33.6132V34.0958L45.6015 33.6802V34.8196C45.6015 35.4562 46.0449 35.9723 46.592 35.9723H48.4635V35.4831C48.4635 35.4362 48.429 35.3959 48.3885 35.3959ZM49.9261 35.9991H51.2276C51.7632 35.9991 52.2066 35.4897 52.2066 34.8598V32.0517C52.2066 31.4217 51.7632 30.9123 51.2276 30.9123H49.9261C49.3847 30.9123 48.9471 31.4217 48.9471 32.0517V34.8598C48.9471 35.4897 49.3847 35.9991 49.9261 35.9991ZM49.9261 31.4888H51.2276C51.4693 31.4888 51.6652 31.7167 51.6652 31.9981V34.9134C51.6652 35.1949 51.4693 35.4227 51.2276 35.4227H49.9261C49.6844 35.4227 49.4884 35.1949 49.4884 34.9134V31.9981C49.4884 31.7167 49.6844 31.4888 49.9261 31.4888ZM54.9131 30.9392C54.8727 30.9392 54.8383 30.9795 54.8383 31.0263V31.5156H56.1282V35.9723H56.5946C56.6406 35.9723 56.6695 35.9321 56.6695 35.8852V31.5156H57.9019C57.942 31.5156 57.9766 31.4754 57.9766 31.4284V30.9392H54.9131ZM62.7044 30.9392C62.6641 30.9392 62.6295 30.9795 62.6295 31.0263V35.2686C62.6295 35.3356 62.5776 35.3959 62.5201 35.3959H61.1784C61.1151 35.3959 61.0689 35.3356 61.0689 35.2686V31.0263C61.0689 30.9795 61.0344 30.9392 60.9942 30.9392H60.5277V35.0743C60.5277 35.2083 60.5737 35.3223 60.6429 35.3959H59.4104C59.157 35.3959 58.967 35.1881 58.967 34.9134V31.0263C58.967 30.9795 58.9324 30.9392 58.8923 30.9392H58.4257V34.8598C58.4257 35.4831 58.8576 35.9723 59.4104 35.9723H62.8369C63.021 35.9723 63.1709 35.798 63.1709 35.5836V30.9392H62.7044ZM64.8351 35.9991H66.1365C66.672 35.9991 67.1154 35.4897 67.1154 34.8598V32.0517C67.1154 31.4217 66.672 30.9123 66.1365 30.9123H64.8351C64.2937 30.9123 63.8562 31.4217 63.8562 32.0517V34.8598C63.8562 35.4897 64.2937 35.9991 64.8351 35.9991ZM64.8351 31.4888H66.1365C66.3784 31.4888 66.5742 31.7167 66.5742 31.9981V34.9134C66.5742 35.1949 66.3784 35.4227 66.1365 35.4227H64.8351C64.5933 35.4227 64.3975 35.1949 64.3975 34.9134V31.9981C64.3975 31.7167 64.5933 31.4888 64.8351 31.4888ZM67.674 35.9723H68.987C69.5225 35.9723 69.9601 35.4629 69.9601 34.8397V30.9459H68.7335V31.4284C68.7335 31.4754 68.768 31.5156 68.8085 31.5156H69.4188V34.8933C69.4188 35.1748 69.2232 35.4026 68.987 35.4026H67.5992V35.8852C67.5992 35.9321 67.6337 35.9723 67.674 35.9723ZM71.636 31.5156H73.5018C73.542 31.5156 73.5766 31.4754 73.5766 31.4284V30.9392H71.636C71.0947 30.9392 70.657 31.4486 70.657 32.0785V34.833C70.657 35.4629 71.0947 35.9723 71.636 35.9723H73.5766V35.4831C73.5766 35.4362 73.542 35.3959 73.5018 35.3959H71.636C71.3941 35.3959 71.1983 35.1681 71.1983 34.8866V33.7405H73.3002C73.3404 33.7405 73.3749 33.7004 73.3749 33.6535V33.1643H71.4803C71.3595 33.1643 71.2558 33.2178 71.1983 33.2983V32.025C71.1983 31.7434 71.3941 31.5156 71.636 31.5156ZM73.974 35.9723H75.2869C75.8225 35.9723 76.2602 35.4629 76.2602 34.8397V30.9459H75.0335V31.4284C75.0335 31.4754 75.0681 31.5156 75.1084 31.5156H75.7189V34.8933C75.7189 35.1748 75.523 35.4026 75.2869 35.4026H73.899V35.8852C73.899 35.9321 73.9337 35.9723 73.974 35.9723ZM83.4237 30.9392C83.3835 30.9392 83.3489 30.9795 83.3489 31.0263V35.2686C83.3489 35.3356 83.2972 35.3959 83.2395 35.3959H81.8978C81.8344 35.3959 81.7883 35.3356 81.7883 35.2686V31.0263C81.7883 30.9795 81.7538 30.9392 81.7136 30.9392H81.247V35.0743C81.247 35.2083 81.2932 35.3223 81.3621 35.3959H80.1299C79.8766 35.3959 79.6865 35.1881 79.6865 34.9134V31.0263C79.6865 30.9795 79.6519 30.9392 79.6115 30.9392H79.1451V34.8598C79.1451 35.4831 79.5771 35.9723 80.1299 35.9723H83.5561C83.7406 35.9723 83.8902 35.798 83.8902 35.5836V30.9392H83.4237ZM85.5545 35.9991H86.8558C87.3913 35.9991 87.8348 35.4897 87.8348 34.8598V32.0517C87.8348 31.4217 87.3913 30.9123 86.8558 30.9123H85.5545C85.0132 30.9123 84.5756 31.4217 84.5756 32.0517V34.8598C84.5756 35.4897 85.0132 35.9991 85.5545 35.9991ZM85.5545 31.4888H86.8558C87.0977 31.4888 87.2936 31.7167 87.2936 31.9981V34.9134C87.2936 35.1949 87.0977 35.4227 86.8558 35.4227H85.5545C85.3126 35.4227 85.1167 35.1949 85.1167 34.9134V31.9981C85.1167 31.7167 85.3126 31.4888 85.5545 31.4888ZM88.8714 35.9723H90.7198C91.2611 35.9723 91.6988 35.4562 91.6988 34.833V32.0785C91.6988 31.4486 91.2611 30.9392 90.7198 30.9392H88.8714C88.6871 30.9392 88.5375 31.1135 88.5375 31.3279V35.5836C88.5375 35.798 88.6871 35.9723 88.8714 35.9723ZM90.7198 35.3959H89.1881C89.1248 35.3959 89.0787 35.3356 89.0787 35.2686V31.6429C89.0787 31.5692 89.1248 31.5156 89.1881 31.5156H90.7198C90.9617 31.5156 91.1576 31.7434 91.1576 32.025V34.8866C91.1576 35.1681 90.9617 35.3959 90.7198 35.3959ZM95.3326 30.9392C95.2921 30.9392 95.2461 30.9794 95.2288 31.0196L94.509 33.2111C94.4861 33.2781 94.4168 33.3318 94.3593 33.3318H93.6395C93.5818 33.3318 93.5128 33.2781 93.4898 33.2111L92.7699 31.0196C92.7527 30.9794 92.7065 30.9392 92.6662 30.9392H92.1596L93.0407 33.5462C93.1038 33.7473 93.2478 33.9215 93.4955 33.9215L93.7259 33.9283V35.9723H94.198C94.2382 35.9723 94.273 35.9321 94.273 35.8852V33.9283H94.532C94.7566 33.9283 94.8948 33.7473 94.9581 33.5462L95.8392 30.9392H95.3326ZM100.112 33.6602V33.171H98.563C98.5226 33.171 98.4881 33.2111 98.4881 33.2581V33.7473H100.037C100.078 33.7473 100.112 33.707 100.112 33.6602Z" fill="black" fill-opacity="0.72"/>
</g>
</svg>
