<svg width="29" height="28" viewBox="0 0 29 28" fill="none" xmlns="http://www.w3.org/2000/svg">
<g id="outline-share-24px 2">
<g id="Outline">
<path id="Vector" d="M21.6802 18.7597C20.7935 18.7597 20.0002 19.1097 19.3935 19.658L11.0752 14.8163C11.1335 14.548 11.1802 14.2797 11.1802 13.9997C11.1802 13.7197 11.1335 13.4513 11.0752 13.183L19.3002 8.38801C19.9302 8.97134 20.7585 9.33301 21.6802 9.33301C23.6168 9.33301 25.1802 7.76967 25.1802 5.83301C25.1802 3.89634 23.6168 2.33301 21.6802 2.33301C19.7435 2.33301 18.1802 3.89634 18.1802 5.83301C18.1802 6.11301 18.2268 6.38134 18.2852 6.64967L10.0602 11.4447C9.43018 10.8613 8.60184 10.4997 7.68018 10.4997C5.74351 10.4997 4.18018 12.063 4.18018 13.9997C4.18018 15.9363 5.74351 17.4997 7.68018 17.4997C8.60184 17.4997 9.43018 17.138 10.0602 16.5547L18.3668 21.408C18.3085 21.653 18.2735 21.9097 18.2735 22.1663C18.2735 24.0447 19.8018 25.573 21.6802 25.573C23.5585 25.573 25.0868 24.0447 25.0868 22.1663C25.0868 20.288 23.5585 18.7597 21.6802 18.7597ZM21.6802 4.66634C22.3218 4.66634 22.8468 5.19134 22.8468 5.83301C22.8468 6.47467 22.3218 6.99967 21.6802 6.99967C21.0385 6.99967 20.5135 6.47467 20.5135 5.83301C20.5135 5.19134 21.0385 4.66634 21.6802 4.66634ZM7.68018 15.1663C7.03851 15.1663 6.51351 14.6413 6.51351 13.9997C6.51351 13.358 7.03851 12.833 7.68018 12.833C8.32184 12.833 8.84684 13.358 8.84684 13.9997C8.84684 14.6413 8.32184 15.1663 7.68018 15.1663ZM21.6802 23.3563C21.0385 23.3563 20.5135 22.8313 20.5135 22.1897C20.5135 21.548 21.0385 21.023 21.6802 21.023C22.3218 21.023 22.8468 21.548 22.8468 22.1897C22.8468 22.8313 22.3218 23.3563 21.6802 23.3563Z" fill="black" fill-opacity="0.72"/>
</g>
</g>
</svg>
