<svg width="24" height="24" viewBox="0 0 24 24" fill="none" xmlns="http://www.w3.org/2000/svg">
<path d="M20 3C20 1.343 18.656 0 17 0C15.344 0 14 1.343 14 3C14 3.312 14.061 3.606 14.149 3.889L9.939 7.046C10.412 7.517 10.817 8.056 11.14 8.645L15.337 5.497C15.814 5.813 16.385 6 17 6C18.656 6 20 4.657 20 3ZM18 3C18 3.551 17.552 4 17 4C16.448 4 16 3.551 16 3C16 2.449 16.448 2 17 2C17.552 2 18 2.449 18 3ZM21 15.062C22.656 15.062 24 13.719 24 12.062C24 10.405 22.656 9.062 21 9.062C19.719 9.062 18.633 9.869 18.203 11H11.92C11.967 11.328 12 11.66 12 12C12 12.34 11.967 12.672 11.92 13H18.164C18.56 14.195 19.673 15.062 21 15.062ZM20 12.062C20 11.511 20.448 11.062 21 11.062C21.552 11.062 22 11.511 22 12.062C22 12.613 21.552 13.062 21 13.062C20.448 13.062 20 12.614 20 12.062ZM0 12C0 14.761 2.238 17 5 17C7.762 17 10 14.761 10 12C10 9.239 7.762 7 5 7C2.238 7 0 9.239 0 12ZM2 12C2 10.346 3.346 9 5 9C6.654 9 8 10.346 8 12C8 13.654 6.654 15 5 15C3.346 15 2 13.654 2 12ZM9.939 16.955L14.149 20.112C14.061 20.394 14 20.688 14 21C14 22.657 15.344 24 17 24C18.656 24 20 22.657 20 21C20 19.343 18.656 18 17 18C16.385 18 15.814 18.187 15.338 18.504L11.141 15.356C10.817 15.945 10.412 16.483 9.939 16.955ZM16 21C16 20.449 16.448 20 17 20C17.552 20 18 20.449 18 21C18 21.551 17.552 22 17 22C16.448 22 16 21.551 16 21Z" fill="#176ED3"/>
</svg>
