<svg width="20" height="15" viewBox="0 0 20 15" fill="none" xmlns="http://www.w3.org/2000/svg">
<path d="M15.8333 0H4.16667C1.86583 0 0 1.39938 0 3.125V11.875C0 13.6006 1.86583 15 4.16667 15H15.8333C18.135 15 20 13.6006 20 11.875V3.125C20 1.39938 18.135 0 15.8333 0ZM13.3333 4.375H11.73C11.2175 4.375 10.8333 4.5325 10.8333 4.93062V5.625H13.3333L13.135 7.5H10.8333V12.5H8.33333V7.5H6.66667V5.625H8.33333V4.42313C8.33333 3.15938 9.22 2.5 11.2175 2.5H13.3333V4.375Z" fill="black" fill-opacity="0.72"/>
</svg>
