<svg width="26" height="33" viewBox="0 0 26 33" fill="none" xmlns="http://www.w3.org/2000/svg">
<path id="Vector" d="M11.8849 21.9189L6.08342 33L4.59061 29.3452L0.487305 30.6762L5.91669 20.3074C6.96336 20.6044 7.67194 20.5301 8.7711 20.5301C9.91965 21.2355 10.426 21.6906 11.8849 21.9189ZM16.9051 20.5315C15.7659 21.2273 15.2857 21.6741 13.8269 21.912L19.6299 33L21.1227 29.3452L25.1874 30.6762L19.792 20.2964C18.7329 20.6016 18.0228 20.5315 16.9051 20.5315ZM12.8373 4.125C9.43337 4.125 6.66233 6.59313 6.66233 9.625C6.66233 12.6569 9.43337 15.125 12.8373 15.125C16.2429 15.125 19.0124 12.6582 19.0124 9.625C19.0124 6.59175 16.2429 4.125 12.8373 4.125ZM23.5294 11.3822C23.6081 11.583 23.6436 11.7892 23.6436 11.9941C23.6436 12.6115 23.3009 13.2083 22.6942 13.5836C20.7553 14.7799 21.0115 14.4788 20.2829 16.4258C19.9772 17.2384 19.0942 17.787 18.1 17.787H18.0938C15.7026 17.7801 16.1194 17.666 14.1912 18.8719C13.7868 19.1235 13.3128 19.25 12.8373 19.25C12.3619 19.25 11.8879 19.1235 11.485 18.8719C9.55687 17.6646 9.97214 17.7801 7.5824 17.787H7.57623C6.58051 17.787 5.69902 17.2384 5.3949 16.4258C4.66471 14.4774 4.91479 14.7785 2.98356 13.5836C2.37377 13.2069 2.03106 12.6101 2.03106 11.9928C2.03106 11.7893 2.06811 11.583 2.1453 11.3822C2.89093 9.44212 2.89248 9.81612 2.1453 7.86912C2.06811 7.667 2.03106 7.46075 2.03106 7.25725C2.03106 6.6385 2.37377 6.04312 2.98201 5.66637C4.91325 4.47287 4.66316 4.77537 5.39336 2.82425C5.69748 2.01162 6.58051 1.463 7.57468 1.463H7.58086C9.96596 1.46987 9.54297 1.59362 11.4835 0.37675C11.8879 0.1265 12.3619 0 12.8373 0C13.3128 0 13.7868 0.125125 14.1897 0.37675C16.1178 1.584 15.7026 1.46987 18.0923 1.463H18.0985C19.0942 1.463 19.9757 2.01162 20.2813 2.82425C21.0115 4.77125 20.7553 4.47012 22.6927 5.66637C23.3009 6.04312 23.6436 6.6385 23.6436 7.25588C23.6436 7.45937 23.6081 7.667 23.5294 7.86775C22.7838 9.80788 22.7807 9.43388 23.5294 11.3822ZM20.5561 9.625C20.5561 5.82863 17.1012 2.75 12.8373 2.75C8.57504 2.75 5.11857 5.82863 5.11857 9.625C5.11857 13.4214 8.57504 16.5 12.8373 16.5C17.1012 16.5 20.5561 13.4228 20.5561 9.625Z" fill="#176ED3"/>
</svg>
