<svg width="24" height="24" viewBox="0 0 24 24" fill="none" xmlns="http://www.w3.org/2000/svg">
<path d="M12.0006 0C18.6227 0 24 5.3751 24 11.9944C24 18.6149 18.6227 23.99 12.0006 23.99C5.37734 23.99 0 18.6149 0 11.9944C0 5.3751 5.37734 0 12.0006 0ZM12.0006 1.7997C6.37119 1.7997 1.80045 6.36734 1.80045 11.9944C1.80045 17.6215 6.37119 22.1903 12.0006 22.1903C17.63 22.1903 22.1995 17.6215 22.1995 11.9944C22.1995 6.36734 17.63 1.7997 12.0006 1.7997ZM5.94028 12.4611L10.5626 16.5764C10.7331 16.73 10.9479 16.8044 11.1616 16.8044C11.404 16.8044 11.6477 16.7072 11.8242 16.514L18.9695 8.70455C19.1268 8.53298 19.2048 8.31701 19.2048 8.10225C19.2048 7.61033 18.8075 7.206 18.307 7.206C18.0621 7.206 17.8209 7.30438 17.642 7.49755L11.0968 14.6508L7.13818 11.1257C6.96534 10.9734 6.75289 10.8978 6.53923 10.8978C6.04111 10.8978 5.64141 11.2997 5.64141 11.7928C5.64141 12.0388 5.74224 12.2836 5.94028 12.4611Z" fill="#176ED3"/>
</svg>
