<svg width="11" height="8" viewBox="0 0 11 8" fill="none" xmlns="http://www.w3.org/2000/svg">
<path id="Vector" d="M9.93808 2.31806C10.0152 2.26139 10.13 2.31441 10.13 2.40398V6.1425C10.13 6.62695 9.70462 7.02 9.18031 7.02H0.949687C0.425381 7.02 0 6.62695 0 6.1425V2.40581C0 2.31441 0.112775 2.26322 0.191916 2.31989C0.635104 2.63798 1.22272 3.042 3.24081 4.39664C3.65828 4.67817 4.36263 5.27048 5.065 5.26683C5.77133 5.27231 6.48953 4.6672 6.89117 4.39664C8.90926 3.042 9.4949 2.63616 9.93808 2.31806ZM5.065 4.68C5.52402 4.68731 6.18484 4.14619 6.51723 3.92316C9.14272 2.16267 9.34255 2.00911 9.94798 1.57036C10.0627 1.48809 10.13 1.36012 10.13 1.22484V0.8775C10.13 0.393047 9.70462 0 9.18031 0H0.949687C0.425381 0 0 0.393047 0 0.8775V1.22484C0 1.36012 0.0672695 1.48627 0.182023 1.57036C0.787449 2.00728 0.987279 2.16267 3.61277 3.92316C3.94516 4.14619 4.60598 4.68731 5.065 4.68Z" fill="white"/>
</svg>
