<svg version="1.1" id="Warstwa_1" xmlns="http://www.w3.org/2000/svg" x="0" y="0" viewBox="0 0 1080 1080" xml:space="preserve"><style></style><path d="M667.25 479.15c-.53-22-4-43.67-10.3-64.41l-1.42-4.68-4.35-2.24a240.465 240.465 0 00-61.44-21.75c-12.19-2.53-24.7-4.14-37.18-4.78-8.27-.43-16.81-.43-25.09 0-12.65.65-25.18 2.25-37.2 4.78a240.622 240.622 0 00-61.45 21.75l-4.35 2.24-1.42 4.68c-6.3 20.74-9.77 42.41-10.3 64.38-.05 2-.08 4.01-.08 6.01 0 18.95 2.2 37.84 6.53 56.13 7.04 29.89 19.58 57.83 37.24 83.01a240.434 240.434 0 0034.04 39.08 242.149 242.149 0 0043.71 32.33l5.79 3.35 5.8-3.35c15.64-9.04 30.35-19.9 43.73-32.3a244.283 244.283 0 0034.05-39.09c17.65-25.21 30.18-53.14 37.25-83.02 4.32-18.24 6.51-37.13 6.51-56.15.01-1.99-.02-3.99-.07-5.97zm-223.42-52.96A217.378 217.378 0 01495 408.73c10.88-2.28 22.21-3.74 33.67-4.32 7.51-.39 15.21-.39 22.71 0 9.49.48 18.98 1.62 28.31 3.32 4.18 8.37 7.68 17.06 10.45 26-11.02-2.9-22.29-4.84-33.68-5.78-10.6-.91-22.34-.91-32.86 0a195.326 195.326 0 00-54.04 12.33c-11.08 4.25-21.69 9.5-31.77 15.64a213.93 213.93 0 016.04-29.73zm-8.01 58.98a172.05 172.05 0 0142.01-23.29c15.26-5.86 31.29-9.52 47.69-10.87 9.29-.8 19.61-.8 28.98 0 14.17 1.17 28.09 4.07 41.47 8.64 1.24 8.4 1.89 16.92 1.89 25.45a148.036 148.036 0 00-32.8-9.44c-16.24-2.78-33.96-2.77-50.11-.01-17.38 2.91-33.95 8.8-49.26 17.51a150.319 150.319 0 00-28 20.56c-1.22-9.45-1.86-18.99-1.87-28.55zm160.3 24.55c-4.08 28.79-15.39 56.17-32.97 79.59-6.87 9.16-14.65 17.58-23.15 25.18-8.47-7.58-16.24-16-23.14-25.19a172.795 172.795 0 01-32.99-79.55c11.03-5.43 22.73-9.23 34.95-11.27 13.66-2.34 28.61-2.35 42.4.01 12.17 2.01 23.87 5.8 34.9 11.23zM540 672.18a219.888 219.888 0 01-33.77-25.8 217.075 217.075 0 01-30.81-35.36c-14.9-21.25-25.7-44.65-32.27-69.62 5.85-6.86 12.36-13.03 19.47-18.47a195.856 195.856 0 0035.73 80.28c9.98 13.3 21.56 25.26 34.4 35.52a196.72 196.72 0 0028.02 18.76c-6.66 5.29-13.58 10.23-20.77 14.69zm98.29-136.23c-6.39 27.02-17.73 52.27-33.7 75.08-7.48 10.71-16.01 20.74-25.31 30-7.18-3.53-14.12-7.56-20.77-12.07a197.27 197.27 0 0023.16-25.75c21.69-28.89 34.98-63.09 38.43-98.87.62-6.22.93-12.68.93-19.2 0-12.15-1.12-24.32-3.34-36.17-2.17-11.69-5.42-23.08-9.63-34.1 9.6 3.12 19 6.89 28.11 11.33 4.82 17.3 7.49 35.28 7.93 53.55.05 1.8.07 3.6.07 5.4.01 17.21-1.98 34.3-5.88 50.8z"/></svg>
