<svg width="12" height="13" viewBox="0 0 12 13" fill="none" xmlns="http://www.w3.org/2000/svg">
<g id="Group">
<path id="Vector" d="M11.9435 4.09971C11.9312 3.2093 11.7935 2.33078 11.5348 1.48847L11.4765 1.29841L11.2921 1.2056C10.4683 0.790474 9.5904 0.48397 8.68383 0.294889C8.16549 0.186435 7.63308 0.115044 7.1015 0.0829162C6.74924 0.0613876 6.38527 0.0571223 6.03218 0.0703851C5.49274 0.0903667 4.95797 0.148846 4.4445 0.245209C3.5325 0.413384 2.64769 0.69923 1.81532 1.09455L1.62887 1.183L1.56615 1.37165C1.28789 2.20767 1.12981 3.08273 1.09689 3.97139C1.09382 4.05229 1.09159 4.1336 1.09065 4.21452C1.08174 4.98126 1.16661 5.74666 1.34255 6.48886C1.62853 7.70175 2.14983 8.8385 2.89064 9.86613C3.30505 10.4452 3.7877 10.9834 4.32302 11.4643C4.88277 11.9707 5.50415 12.4182 6.1707 12.7943L6.41589 12.9327L6.66466 12.8001C7.33547 12.4421 7.96751 12.0101 8.54359 11.515C9.09082 11.0443 9.58543 10.5176 10.0132 9.9504C10.7772 8.93919 11.3244 7.81538 11.6398 6.60993C11.8325 5.87408 11.9347 5.11087 11.9436 4.3413C11.945 4.26079 11.9447 4.17985 11.9435 4.09971ZM2.44639 1.84531C3.14353 1.53258 3.87849 1.30406 4.63543 1.16442C5.1002 1.0776 5.58376 1.02419 6.07245 1.00644C6.3927 0.994414 6.72087 0.99826 7.04033 1.01779C7.44456 1.04195 7.84848 1.09281 8.24532 1.16626C8.41953 1.507 8.56461 1.86036 8.67846 2.22346C8.21016 2.10062 7.73076 2.0165 7.24576 1.97277C6.79443 1.93066 6.29408 1.9248 5.8453 1.95636C5.05399 2.009 4.27679 2.16783 3.53635 2.42826C3.06213 2.59468 2.60748 2.8018 2.17499 3.0452C2.23598 2.63801 2.32632 2.23683 2.44639 1.84531ZM2.07727 4.2277C2.62905 3.84245 3.23366 3.53268 3.87865 3.30635C4.53178 3.07687 5.21669 2.93678 5.91628 2.89035C6.31259 2.86262 6.75242 2.86778 7.15138 2.90483C7.75475 2.95924 8.34664 3.08353 8.91474 3.27512C8.96363 3.61561 8.98733 3.96067 8.98332 4.3058C8.5366 4.12292 8.07014 3.98877 7.58985 3.90746C6.89902 3.78687 6.1438 3.77843 5.4542 3.88203C4.71211 3.99109 4.00314 4.22113 3.34654 4.5659C2.91038 4.79509 2.50865 5.0692 2.14354 5.38379C2.09599 5.00083 2.0732 4.61451 2.07727 4.2277ZM8.89758 5.30108C8.71015 6.46391 8.21525 7.56609 7.45499 8.5049C7.15788 8.8721 6.82234 9.20889 6.45651 9.51215C6.09909 9.20122 5.7719 8.85666 5.48215 8.48138C4.74431 7.52784 4.27516 6.41518 4.11356 5.24623C4.5862 5.03204 5.08663 4.88413 5.6084 4.80769C6.19168 4.71983 6.82884 4.7269 7.41545 4.82927C7.93318 4.91668 8.43004 5.07587 8.89758 5.30108ZM6.42937 11.8463C5.9189 11.5373 5.4401 11.1816 5.00225 10.7856C4.51713 10.3501 4.08119 9.86389 3.70579 9.3395C3.08076 8.47226 2.63148 7.52008 2.36322 6.50648C2.61577 6.23184 2.89612 5.98545 3.2017 5.76889C3.42969 6.94712 3.93545 8.06426 4.68672 9.03495C5.10581 9.57806 5.59371 10.0678 6.13611 10.4893C6.50826 10.7798 6.90509 11.0377 7.32148 11.2623C7.03515 11.4731 6.7379 11.6695 6.42937 11.8463ZM10.6825 6.38343C10.3974 7.4735 9.90227 8.48948 9.21091 9.40442C8.88708 9.83402 8.51882 10.2356 8.11811 10.6056C7.81376 10.4592 7.51988 10.2927 7.23858 10.1069C7.60199 9.79225 7.93719 9.44776 8.23775 9.07656C9.17575 7.91848 9.75825 6.54135 9.92212 5.09538C9.95147 4.84402 9.96772 4.5828 9.97079 4.31899C9.9765 3.82739 9.93449 3.33442 9.84545 2.85385C9.75847 2.37977 9.62531 1.9173 9.45107 1.46932C9.85874 1.60035 10.2576 1.75758 10.6438 1.94178C10.841 2.64416 10.9464 3.37298 10.9565 4.11243C10.9578 4.18528 10.9578 4.25812 10.957 4.33095C10.9493 5.02729 10.8565 5.71777 10.6825 6.38343Z" fill="black"/>
</g>
</svg>
