<svg width="22" height="24" viewBox="0 0 22 24" fill="none" xmlns="http://www.w3.org/2000/svg">
<path d="M13.89 23.654C6.52302 27.021 -4.91198 4.794 2.28902 1.039L4.39602 0L7.88802 6.817L5.80602 7.843C3.61702 9.017 8.17602 17.923 10.415 16.837C10.506 16.796 12.472 15.83 12.479 15.826L16 22.621C15.992 22.625 14.011 23.599 13.89 23.654ZM12.352 10.245L15.269 11.115C15.492 10.368 15.429 9.536 15.029 8.798C14.63 8.059 13.967 7.551 13.221 7.329L12.352 10.245ZM14.156 4.187C15.707 4.649 17.082 5.703 17.912 7.238C18.743 8.774 18.872 10.501 18.41 12.051L16.615 11.516C16.94 10.425 16.848 9.21 16.263 8.129C15.68 7.048 14.712 6.307 13.62 5.983L14.156 4.187ZM15.106 1C17.471 1.705 19.569 3.312 20.835 5.656C22.104 7.999 22.301 10.634 21.596 13L19.756 12.452C20.32 10.557 20.162 8.446 19.148 6.57C18.132 4.693 16.452 3.405 14.557 2.841L15.106 1Z" fill="#176ED3"/>
</svg>
