<svg width="19" height="18" viewBox="0 0 19 18" fill="none" xmlns="http://www.w3.org/2000/svg">
<g id="outline-place-24px">
<path id="Vector" d="M9.50016 1.5C6.43641 1.5 3.9585 3.8475 3.9585 6.75C3.9585 10.6875 9.50016 16.5 9.50016 16.5C9.50016 16.5 15.0418 10.6875 15.0418 6.75C15.0418 3.8475 12.5639 1.5 9.50016 1.5ZM5.54183 6.75C5.54183 4.68 7.31516 3 9.50016 3C11.6852 3 13.4585 4.68 13.4585 6.75C13.4585 8.91 11.1785 12.1425 9.50016 14.16C7.8535 12.1575 5.54183 8.8875 5.54183 6.75Z" fill="#176ED3"/>
<path id="Vector_2" d="M9.50016 8.625C10.5932 8.625 11.4793 7.78553 11.4793 6.75C11.4793 5.71447 10.5932 4.875 9.50016 4.875C8.4071 4.875 7.521 5.71447 7.521 6.75C7.521 7.78553 8.4071 8.625 9.50016 8.625Z" fill="#176ED3"/>
</g>
</svg>
