<svg width="101" height="20" viewBox="0 0 101 20" fill="none" xmlns="http://www.w3.org/2000/svg">
<g clip-path="url(#clip0_2139_1042)">
<rect width="100" height="20" transform="translate(0.5)" fill="white"/>
<path d="M7.36922 6.1166L2.05255 6.88744L1.95838 6.9066C1.81583 6.94445 1.68588 7.01944 1.58179 7.12394C1.47771 7.22843 1.40322 7.35868 1.36593 7.50137C1.32865 7.64407 1.32991 7.79411 1.36957 7.93616C1.40924 8.07822 1.4859 8.2072 1.59172 8.30994L5.44338 12.0591L4.53505 17.3549L4.52422 17.4466C4.51549 17.594 4.5461 17.7411 4.61292 17.8729C4.67974 18.0046 4.78037 18.1162 4.9045 18.1962C5.02862 18.2762 5.17179 18.3218 5.31934 18.3284C5.46689 18.3349 5.61352 18.3021 5.74422 18.2333L10.4992 15.7333L15.2434 18.2333L15.3267 18.2716C15.4643 18.3258 15.6138 18.3424 15.7598 18.3197C15.9059 18.2971 16.0434 18.236 16.158 18.1427C16.2727 18.0494 16.3605 17.9272 16.4124 17.7888C16.4643 17.6504 16.4785 17.5006 16.4534 17.3549L15.5442 12.0591L19.3975 8.3091L19.4625 8.23827C19.5554 8.12391 19.6163 7.98698 19.639 7.84143C19.6617 7.69588 19.6454 7.54692 19.5918 7.40971C19.5382 7.2725 19.4492 7.15196 19.3338 7.06036C19.2184 6.96876 19.0808 6.90938 18.935 6.88827L13.6184 6.1166L11.2417 1.29994C11.1729 1.16038 11.0665 1.04286 10.9344 0.960689C10.8023 0.878514 10.6498 0.834961 10.4942 0.834961C10.3386 0.834961 10.1862 0.878514 10.0541 0.960689C9.92195 1.04286 9.81549 1.16038 9.74672 1.29994L7.36922 6.1166Z" fill="#FFC107"/>
<path d="M27.3692 6.1166L22.0525 6.88744L21.9584 6.9066C21.8158 6.94445 21.6859 7.01944 21.5818 7.12394C21.4777 7.22843 21.4032 7.35868 21.3659 7.50137C21.3286 7.64407 21.3299 7.79411 21.3696 7.93616C21.4092 8.07822 21.4859 8.2072 21.5917 8.30994L25.4434 12.0591L24.535 17.3549L24.5242 17.4466C24.5155 17.594 24.5461 17.7411 24.6129 17.8729C24.6797 18.0046 24.7804 18.1162 24.9045 18.1962C25.0286 18.2762 25.1718 18.3218 25.3193 18.3284C25.4669 18.3349 25.6135 18.3021 25.7442 18.2333L30.4992 15.7333L35.2434 18.2333L35.3267 18.2716C35.4643 18.3258 35.6138 18.3424 35.7598 18.3197C35.9059 18.2971 36.0434 18.236 36.158 18.1427C36.2727 18.0494 36.3605 17.9272 36.4124 17.7888C36.4643 17.6504 36.4785 17.5006 36.4534 17.3549L35.5442 12.0591L39.3975 8.3091L39.4625 8.23827C39.5554 8.12391 39.6163 7.98698 39.639 7.84143C39.6617 7.69588 39.6454 7.54692 39.5918 7.40971C39.5382 7.2725 39.4492 7.15196 39.3338 7.06036C39.2184 6.96876 39.0808 6.90938 38.935 6.88827L33.6184 6.1166L31.2417 1.29994C31.1729 1.16038 31.0665 1.04286 30.9344 0.960689C30.8023 0.878514 30.6498 0.834961 30.4942 0.834961C30.3386 0.834961 30.1862 0.878514 30.0541 0.960689C29.922 1.04286 29.8155 1.16038 29.7467 1.29994L27.3692 6.1166Z" fill="#FFC107"/>
<path d="M47.3692 6.1166L42.0525 6.88744L41.9584 6.9066C41.8158 6.94445 41.6859 7.01944 41.5818 7.12394C41.4777 7.22843 41.4032 7.35868 41.3659 7.50137C41.3286 7.64407 41.3299 7.79411 41.3696 7.93616C41.4092 8.07822 41.4859 8.2072 41.5917 8.30994L45.4434 12.0591L44.535 17.3549L44.5242 17.4466C44.5155 17.594 44.5461 17.7411 44.6129 17.8729C44.6797 18.0046 44.7804 18.1162 44.9045 18.1962C45.0286 18.2762 45.1718 18.3218 45.3193 18.3284C45.4669 18.3349 45.6135 18.3021 45.7442 18.2333L50.4992 15.7333L55.2434 18.2333L55.3267 18.2716C55.4643 18.3258 55.6138 18.3424 55.7598 18.3197C55.9059 18.2971 56.0434 18.236 56.158 18.1427C56.2727 18.0494 56.3605 17.9272 56.4124 17.7888C56.4643 17.6504 56.4785 17.5006 56.4534 17.3549L55.5442 12.0591L59.3975 8.3091L59.4625 8.23827C59.5554 8.12391 59.6163 7.98698 59.639 7.84143C59.6617 7.69588 59.6454 7.54692 59.5918 7.40971C59.5382 7.2725 59.4492 7.15196 59.3338 7.06036C59.2184 6.96876 59.0808 6.90938 58.935 6.88827L53.6184 6.1166L51.2417 1.29994C51.1729 1.16038 51.0665 1.04286 50.9344 0.960689C50.8023 0.878514 50.6498 0.834961 50.4942 0.834961C50.3386 0.834961 50.1862 0.878514 50.0541 0.960689C49.922 1.04286 49.8155 1.16038 49.7467 1.29994L47.3692 6.1166Z" fill="#FFC107"/>
<path d="M67.3692 6.1166L62.0525 6.88744L61.9584 6.9066C61.8158 6.94445 61.6859 7.01944 61.5818 7.12394C61.4777 7.22843 61.4032 7.35868 61.3659 7.50137C61.3286 7.64407 61.3299 7.79411 61.3696 7.93616C61.4092 8.07822 61.4859 8.2072 61.5917 8.30994L65.4434 12.0591L64.535 17.3549L64.5242 17.4466C64.5155 17.594 64.5461 17.7411 64.6129 17.8729C64.6797 18.0046 64.7804 18.1162 64.9045 18.1962C65.0286 18.2762 65.1718 18.3218 65.3193 18.3284C65.4669 18.3349 65.6135 18.3021 65.7442 18.2333L70.4992 15.7333L75.2434 18.2333L75.3267 18.2716C75.4643 18.3258 75.6138 18.3424 75.7598 18.3197C75.9059 18.2971 76.0434 18.236 76.158 18.1427C76.2727 18.0494 76.3605 17.9272 76.4124 17.7888C76.4643 17.6504 76.4785 17.5006 76.4534 17.3549L75.5442 12.0591L79.3975 8.3091L79.4625 8.23827C79.5554 8.12391 79.6163 7.98698 79.639 7.84143C79.6617 7.69588 79.6454 7.54692 79.5918 7.40971C79.5382 7.2725 79.4492 7.15196 79.3338 7.06036C79.2184 6.96876 79.0808 6.90938 78.935 6.88827L73.6184 6.1166L71.2417 1.29994C71.1729 1.16038 71.0665 1.04286 70.9344 0.960689C70.8023 0.878514 70.6498 0.834961 70.4942 0.834961C70.3386 0.834961 70.1862 0.878514 70.0541 0.960689C69.922 1.04286 69.8155 1.16038 69.7467 1.29994L67.3692 6.1166Z" fill="#FFC107"/>
<path d="M87.3692 6.1166L82.0525 6.88744L81.9584 6.9066C81.8158 6.94445 81.6859 7.01944 81.5818 7.12394C81.4777 7.22843 81.4032 7.35868 81.3659 7.50137C81.3286 7.64407 81.3299 7.79411 81.3696 7.93616C81.4092 8.07822 81.4859 8.2072 81.5917 8.30994L85.4434 12.0591L84.535 17.3549L84.5242 17.4466C84.5155 17.594 84.5461 17.7411 84.6129 17.8729C84.6797 18.0046 84.7804 18.1162 84.9045 18.1962C85.0286 18.2762 85.1718 18.3218 85.3193 18.3284C85.4669 18.3349 85.6135 18.3021 85.7442 18.2333L90.4992 15.7333L95.2434 18.2333L95.3267 18.2716C95.4643 18.3258 95.6138 18.3424 95.7598 18.3197C95.9059 18.2971 96.0434 18.236 96.158 18.1427C96.2727 18.0494 96.3605 17.9272 96.4124 17.7888C96.4643 17.6504 96.4785 17.5006 96.4534 17.3549L95.5442 12.0591L99.3975 8.3091L99.4625 8.23827C99.5554 8.12391 99.6163 7.98698 99.639 7.84143C99.6617 7.69588 99.6454 7.54692 99.5918 7.40971C99.5382 7.2725 99.4492 7.15196 99.3338 7.06036C99.2184 6.96876 99.0808 6.90938 98.935 6.88827L93.6184 6.1166L91.2417 1.29994C91.1729 1.16038 91.0665 1.04286 90.9344 0.960689C90.8023 0.878514 90.6498 0.834961 90.4942 0.834961C90.3386 0.834961 90.1862 0.878514 90.0541 0.960689C89.922 1.04286 89.8155 1.16038 89.7467 1.29994L87.3692 6.1166Z" fill="#FFC107"/>
</g>
<defs>
<clipPath id="clip0_2139_1042">
<rect width="100" height="20" fill="white" transform="translate(0.5)"/>
</clipPath>
</defs>
</svg>
