<svg width="33" height="31" viewBox="0 0 33 31" fill="none" xmlns="http://www.w3.org/2000/svg">
<path id="Vector" fill-rule="evenodd" clip-rule="evenodd" d="M18.0618 31H0.244629V2.58333H4.23266C5.86909 2.58333 7.13196 1.18317 8.2207 0H18.8555C19.9468 1.18317 21.2111 2.58333 22.8435 2.58333H26.8315V14.4021C26.1868 14.2755 25.5195 14.2083 24.8375 14.2083L24.1728 14.229V5.16667H18.8555L16.1968 7.75H11.0163L8.2207 5.16667H2.90332V28.4167H16.0186C16.5464 29.3867 17.2403 30.2599 18.0618 31ZM24.8375 16.7917C28.8721 16.7917 32.1489 19.9743 32.1489 23.8958C32.1489 27.8173 28.8721 31 24.8375 31C20.8016 31 17.5261 27.8173 17.5261 23.8958C17.5261 19.9743 20.8016 16.7917 24.8375 16.7917ZM24.8375 19.375C27.4045 19.375 29.4902 21.4003 29.4902 23.8958C29.4902 26.3913 27.4045 28.4167 24.8375 28.4167C22.2692 28.4167 20.1848 26.3913 20.1848 23.8958C20.1848 21.4003 22.2692 19.375 24.8375 19.375ZM28.1609 24.5417H24.1728V20.6667H25.5022V23.25H28.1609V24.5417ZM8.01997 19.3078L6.62548 18.0368L5.56201 19.0999L8.03991 21.3939L12.2087 17.2709L11.1253 16.2272L8.01997 19.3078ZM16.1968 20.6667H13.5381V19.375H16.1968V20.6667ZM18.8555 18.0833H13.5381V16.7917H18.8555V18.0833ZM8.01997 12.8844L6.62548 11.6147L5.56201 12.6777L8.03991 14.9717L12.2087 10.8487L11.1253 9.80504L8.01997 12.8844ZM18.8555 14.2083H13.5381V12.9167H18.8555V14.2083ZM18.8555 11.625H13.5381V10.3333H18.8555V11.625ZM12.2087 3.875C12.2087 4.588 12.8056 5.16667 13.5381 5.16667C14.2732 5.16667 14.8674 4.588 14.8674 3.875C14.8674 3.162 14.2732 2.58333 13.5381 2.58333C12.8056 2.58333 12.2087 3.162 12.2087 3.875Z" fill="#176ED3"/>
</svg>
