<svg width="25" height="21" viewBox="0 0 25 21" fill="none" xmlns="http://www.w3.org/2000/svg">
<path d="M19.375 9.1875C22.48 9.1875 25 11.8335 25 15.0938C25 18.354 22.48 21 19.375 21C16.27 21 13.75 18.354 13.75 15.0938C13.75 11.8335 16.27 9.1875 19.375 9.1875ZM12.6925 18.3737C12.6275 18.375 12.5625 18.375 12.4975 18.375C7.4 18.375 2.82 14.3154 0.18 9.86606C0.0600001 9.65738 0 9.42244 0 9.1875C0 8.95256 0.06125 8.71762 0.18125 8.50894C2.82 4.05956 7.4 0 12.4975 0C17.6763 0 22.2425 4.05562 24.8275 8.52206C24.9425 8.72681 25 8.95781 25 9.1875C25 9.42244 24.9225 9.64556 24.8125 9.86475C24.0875 9.03263 23.1912 8.3685 22.1838 7.93275C19.855 4.683 16.4013 1.96875 12.4975 1.96875C8.16625 1.96875 4.33125 5.42325 1.9925 9.1875C4.26125 12.8376 7.935 16.1963 12.1037 16.3971C12.2162 17.0914 12.4163 17.7542 12.6925 18.3737ZM16.5312 15.7185L18.3337 17.4051C18.4525 17.5166 18.6025 17.5718 18.75 17.5718C18.92 17.5718 19.0888 17.4996 19.2125 17.3591L22.2638 13.8561C22.3738 13.7301 22.4275 13.5712 22.4275 13.4151C22.4275 13.0554 22.1512 12.7601 21.8025 12.7601C21.6325 12.7601 21.4638 12.8323 21.34 12.9727L18.705 15.9967L17.3638 14.742C17.2437 14.6304 17.0962 14.5753 16.9475 14.5753C16.6012 14.5753 16.3225 14.8693 16.3225 15.2303C16.3225 15.4101 16.3925 15.5886 16.5312 15.7185ZM12.0275 14.4139C9.48875 14.1645 7.5 11.9175 7.5 9.1875C7.5 6.2895 9.74 3.9375 12.5 3.9375C14.755 3.9375 16.6637 5.50856 17.2863 7.665C16.67 7.85663 16.0875 8.12963 15.55 8.47219C15.24 7.00481 13.9913 5.90625 12.5 5.90625C10.775 5.90625 9.375 7.37625 9.375 9.1875C9.375 10.9764 10.74 12.432 12.435 12.4674C12.2238 13.0843 12.0837 13.7366 12.0275 14.4139Z" fill="#176ED3"/>
</svg>
