<svg width="26" height="25" viewBox="0 0 26 25" fill="none" xmlns="http://www.w3.org/2000/svg">
<path id="Vector" d="M12.0438 6.25C7.89268 11.8729 5.22563 15.3896 5.22563 18.8083C5.22563 22.2292 8.27563 25 12.0438 25C15.812 25 18.862 22.2292 18.862 18.8083C18.862 15.3896 16.1949 11.8729 12.0438 6.25ZM12.0199 10.249C12.4199 10.8156 12.8961 11.8021 12.8961 12.8427C12.8961 15.8958 9.48699 16.3969 9.48699 14.5375C9.48699 13.2625 11.1813 11.3802 12.0199 10.249ZM9.29381 6.26042C8.59722 4.55312 7.16199 2.62292 5.22563 0C2.45745 3.74896 0.680176 6.09375 0.680176 8.37187C0.680176 10.5896 2.60631 12.3833 5.02336 12.4812C6.10177 10.6323 7.56313 8.60729 9.29381 6.26042ZM3.52108 5.52604C3.52108 4.67604 4.65063 3.42083 5.20972 2.66667C5.47677 3.04375 5.79381 3.70208 5.79381 4.39583C5.79381 6.43125 3.52108 6.76458 3.52108 5.52604ZM21.1347 3.125C19.1961 5.75104 17.7597 7.68333 17.0631 9.39167C18.6711 11.6854 19.8654 13.6646 20.5336 15.5708C23.4018 15.9156 25.6802 13.8948 25.6802 11.4969C25.6802 9.21875 23.9029 6.87396 21.1347 3.125ZM19.4302 8.65104C19.4302 7.80104 20.5597 6.54583 21.1188 5.79167C21.3859 6.16875 21.7029 6.82708 21.7029 7.52083C21.7029 9.55625 19.4302 9.88958 19.4302 8.65104Z" fill="black" fill-opacity="0.72"/>
</svg>
