<svg width="21" height="27" viewBox="0 0 21 27" fill="none" xmlns="http://www.w3.org/2000/svg">
<path id="Vector" d="M3.92768 9.3825L14.4664 5.0715C15.1577 6.01875 15.8014 6.92325 16.3902 7.78725L1.57393 13.8476C2.12393 12.4459 2.91643 10.9755 3.92768 9.3825ZM0.801426 16.6343C0.727676 17.1203 0.680176 17.6029 0.680176 18.0844C0.680176 18.7718 0.775176 19.4377 0.940176 20.079L19.2464 12.5921C18.8089 11.6797 18.2789 10.7325 17.6602 9.738L0.801426 16.6343ZM4.07893 24.7691L20.6802 17.9786C20.6677 16.9088 20.4664 15.8276 20.1039 14.7128L1.81018 22.194C2.38268 23.175 3.15518 24.0446 4.07893 24.7691ZM13.0639 3.17362C12.3127 2.16675 11.5202 1.11487 10.6827 0C9.03643 2.19038 7.55393 4.15238 6.26018 5.95687L13.0639 3.17362ZM6.58893 26.2136C7.83893 26.7143 9.22268 27 10.6827 27C15.2214 27 19.0439 24.3079 20.2702 20.619L6.58893 26.2136Z" fill="black" fill-opacity="0.72"/>
</svg>
