<svg width="30" height="32" viewBox="0 0 30 32" fill="none" xmlns="http://www.w3.org/2000/svg">
<path id="Vector" fill-rule="evenodd" clip-rule="evenodd" d="M1.59811 14.2329H0V11.3804C0.634904 11.3804 1.05003 10.7683 1.28066 10.0929C2.07701 7.76469 3.43771 4.26522 6.78317 2.07127V6.48499C6.78317 7.1978 7.39094 7.77631 8.1398 7.77631C8.88866 7.77631 9.49643 7.1978 9.49643 6.48499V0.75542C10.674 0.356403 12.0211 0.0891008 13.5663 0V3.90236C13.5663 4.61516 14.1741 5.19367 14.923 5.19367C15.6718 5.19367 16.2796 4.61516 16.2796 3.90236V0.028409C17.818 0.149793 19.1665 0.450669 20.3495 0.881969V6.48499C20.3495 7.1978 20.9573 7.77631 21.7061 7.77631C22.455 7.77631 23.0628 7.1978 23.0628 6.48499V2.26368C26.3065 4.45892 27.7608 7.8215 28.5666 10.0929C28.804 10.7644 29.211 11.3804 29.8459 11.3804V14.2329H28.2465C29.0265 14.8256 29.8459 15.9891 29.8459 18.276C29.8459 20.3808 28.6195 23.0358 25.9429 24.127C23.0221 28.5755 19.1231 31.02 14.923 31.02C10.7228 31.02 6.82387 28.5755 3.90168 24.127C1.22504 23.0358 0 20.3808 0 18.276C0 15.9891 0.81805 14.8256 1.59811 14.2329ZM17.9076 23.8648H11.9384C11.9438 23.8803 12.7876 26.1117 14.923 26.1117C17.1397 26.1117 17.9021 23.8803 17.9076 23.8648ZM24.0355 14.2329H5.8091L5.79147 14.8979C5.79147 15.7605 4.86624 16.3364 4.04412 15.9878C3.81485 15.8909 3.46077 15.8935 3.20708 16.0511C1.96305 16.8271 2.096 21.0407 5.14028 22.0286C6.38296 22.4327 8.34737 26.0355 10.4719 22.5425C11.2071 21.3364 13.5256 21.2008 14.923 22.159C16.3189 21.2008 18.6388 21.3364 19.3727 22.5425C21.4972 26.0355 23.4616 22.4327 24.7043 22.0286C27.7486 21.0407 27.8815 16.8271 26.6375 16.0511C26.3458 15.8703 25.9768 15.9142 25.8018 15.9878C24.9797 16.3377 24.0531 15.7605 24.0531 14.8979L24.0355 14.2329ZM10.8816 15.519C10.0215 15.519 9.32685 16.3197 9.32685 17.3075C9.32685 18.2954 10.0215 19.096 10.8816 19.096C11.7389 19.096 12.4363 18.2954 12.4363 17.3075C12.4363 16.3197 11.7389 15.519 10.8816 15.519ZM20.5191 17.3075C20.5191 18.2954 19.8231 19.096 18.9644 19.096C18.1056 19.096 17.4097 18.2954 17.4097 17.3075C17.4097 16.3197 18.1056 15.519 18.9644 15.519C19.8231 15.519 20.5191 16.3197 20.5191 17.3075Z" fill="#176ED3"/>
</svg>
